<svg id="Layer_1" data-name="Layer 1" xmlns="http://www.w3.org/2000/svg" viewBox="0 0 1578 843"><defs><style>.cls-1{opacity:0.62;}.cls-2{fill:#cd5e79;}</style></defs><title>backgroundimageflowers</title><g class="cls-1"><path class="cls-2" d="M274.33,671.39c4.11-1.25,8.24-1.86,11.75-3.68,9.46-4.92,14.16-15.67,12.41-27.85-.65-4.52-2-9-3.07-13.42a16,16,0,0,1,1.14-10.89,69,69,0,0,1,4.26-8.51c9-13.66,1.71-26.86-6.59-34.11-10.45-9.12-22.54-11.71-35.82-6.41a98.75,98.75,0,0,1-11.34,3.91c1.6-1.36,3.14-2.81,4.82-4.07,6.09-4.55,8.43-10.09,6.06-17.77-2.28-7.35-5-14.37-10.94-19.44a26.48,26.48,0,0,0-9.16-4.7A37.34,37.34,0,0,0,227.47,523c-2.64,0-5.32.77-8,1.32a10.92,10.92,0,0,0-2.7,1.18c-13.07,6.9-24.52,3.58-35.09-5.5-3.49-3-6.89-6.13-10.62-8.8-6.49-4.65-13.51-8.35-21.85-7.57-6.26.58-10.61,4-12.18,10.25a46.27,46.27,0,0,0-1.32,8.09c-1.34,20.52-2.57,41.06-3.88,61.59-.63,9.94-.62,19.84,1.85,30.43-2.05-1.65-3.52-2.86-5-4.05-7.87-6.22-15.06-12.94-19.15-22.46A17,17,0,0,0,98.73,578c-7.35-2.41-14.69-4.66-22.36-1.18-.45.21-1.22.35-1.52.12-2.79-2.2-4.65-.29-6,1.64-2,2.81-4.32,5.72-5.25,8.95-2.69,9.35-4.75,18.89-7.08,28.35-.85,3.49-2.07,6.92-2.54,10.45-.59,4.51-1.18,9.16-.75,13.65,2.14,22.63,11,42.57,24.5,60.72,9.36,12.6,19,24.89,31.4,34.7A32.67,32.67,0,0,0,129.93,743c10.27,0,20.54.62,31.32,1-1.58,2.19-1.27,3.56.48,5.15a22.48,22.48,0,0,1,4.17,5.84c4.38,7.82,10,14.59,17.47,19.53a32.3,32.3,0,0,0,9.52,4.24c9.75,2.53,19.64,4.51,29.41,7,9.11,2.29,18,1.45,26.93-.91,1.88-.5,4-.15,6-.18.43,0,1,.21,1.27,0,5.07-3.36,10.33-1.21,15.52-.57,3.47.43,6.91,1.24,10.39,1.53,6.88.56,13.28-.82,18.76-5.38,2.86-2.38,5.73-4.78,8.78-6.89,6.63-4.57,13.39-9,20.09-13.42a41.47,41.47,0,0,0,3.58-2.33c10.94-9,8.41-14.59.22-20.68a19.91,19.91,0,0,0-2.42-1.7c-9.82-5.3-15.2-13.56-18.65-24.19a55.9,55.9,0,0,0-26.27-32.45C282.47,676.26,278.55,673.87,274.33,671.39Zm-59.95,15.86c1.44-2,1.28-3.77-.36-5.61a16.45,16.45,0,0,1-2.76-4,5.26,5.26,0,0,1,.17-2.88c4-.11,3.21-3.37,3.66-5.65l2.8-.64,4.11,3.74c0,1.28-.09,2.9-.14,4.52l5.25-.31c-.08,1.08-8.83,8.73-12.86,10.83a57.46,57.46,0,0,0-4.19,5.31c-.52.82-.25,2.14-.34,3.24,1.19-.06,2.64.28,3.5-.28a26.87,26.87,0,0,0,4-3.85c7.78-7.88,16.65-14,27.74-16,4.94-.89,10-1,15-1.85a18.28,18.28,0,0,1,12.28,1.8c4.22,2.34,8.38,4.78,12.52,7.24,12.8,7.6,20.6,19.1,25,33,2.37,7.4,5.46,14.08,12.27,18.42a14.48,14.48,0,0,1,1.82,1.65c-8.79,18.43-23,26.48-42.94,23.07,1-1.64,0-2.73-1.78-3.79a61,61,0,0,1-6.74-4.64c-4.55-3.61-9-7.37-13.48-11-1.41-1.15-3.1-3-4.75-.86s.6,3.09,1.91,4.15c7.17,5.84,14.37,11.64,21.46,17.38-.5.19-1.4.51-2.28.89-6,2.59-12.32,4.65-17.93,7.94-6.73,3.94-13.17,5.28-20.58,2.34a192.06,192.06,0,0,0-18.95-6.44c-6.95-1.92-11.57-7-17.5-11.17,5.43-.24,10.2-.52,15-.6a4.61,4.61,0,0,1,2.66,1.2c3.92,3.32,7.7,6.82,11.72,10,.78.62,2.46.09,3.73.09a14.41,14.41,0,0,0-1-3.38c-.46-.79-1.48-1.25-2.23-1.9-2.58-2.2-5.14-4.43-8.1-7l9.63-2.09-.51,1q8,5.32,16,10.62a1.28,1.28,0,0,0,.94.23c.85-.31,2.24-.61,2.35-1.13a4.43,4.43,0,0,0-.93-2.75c-.31-.47-1.16-.56-1.71-.92-3.82-2.57-7.63-5.16-11.11-7.51,4.63-2.8,9.37-4.72,12.84-8,4.9-4.63,9-10.14,13.15-15.49,2.19-2.83,2.93-6.43.83-9.56s-5.38-2.08-8.43-1.42c-1.32.29-3,.66-4.07.12a85.34,85.34,0,0,1-10.35-6.13c-6.62-4.67-13-9.66-19.64-14.32-1-.69-2.68-.33-4-.45.19,1.06,0,2.63.64,3.11q10.83,8.26,21.91,16.21a41,41,0,0,0,5.39,2.8l-.77,1.3c-3.36-2.11-6.86-4-10.06-6.36-5.74-4.2-11.25-8.72-17-12.93-.88-.64-2.45-.32-3.7-.44.3,1.23.33,2.65,1,3.66a12.87,12.87,0,0,0,3,2.5L229.92,714l-.66,1-26.55-15.62c3.74-2.31,4.15-5.16,1.67-9.32-.65-1.1-1.1-2.32-1.9-4,1.59,1,3,2.34,3.28,2.11C208.53,686.21,211.65,688.66,214.38,687.25ZM243.92,533c1.43,1.44,3.3,2.66,4.2,4.38a111.13,111.13,0,0,1,5.38,12.3c2,5.29.46,9.54-4.2,12.86-2.3,1.64-5,3.4-6.2,5.77-2.34,4.57-8.17,8.91-2.58,15,.32.35.3,1,.42,1.57.59,2.56,1,5.17,1.78,7.68,5.58,18.31-4.16,31.49-14.43,44.55l-3.7-3.62c3.12-7.22,6.29-14.27,9.13-21.45.43-1.09-.33-3.69-1.18-4-2.14-.88-2.56,1.23-3,2.84a18.75,18.75,0,0,1-.9,3.16c-2.23,4.89-4.53,9.75-7.1,15.24-2.54-3.63-4.71-3.25-7.37-.69,3-9.37,4.2-18.37,8.18-26.7s6.64-17.2,6.82-26.56c0-1.12-1.34-2.27-2.06-3.41-.75,1-2.06,2-2.16,3.13-1.41,15-7.09,28.39-14.53,41.19-1.36,2.33-1.61,4,1.28,5.21L209.64,628l-3.9-.63c.74-2.57,1.93-5.14,2.18-7.79,1-10.43,1.16-21,5-30.92a2.92,2.92,0,0,0,.29-1.6c-.39-1.3-.95-2.55-1.44-3.82-.94,1-2.27,1.79-2.73,2.95-1.62,4.14-3.07,8.36-4.32,12.63-.64,2.16-1.57,4.78-.91,6.69,2.07,5.91-.56,10.38-3.52,15.49-.16-2.34.34-4.56-.54-5.87-1.61-2.39-.8-4.54-.53-6.87.64-5.43,1.35-10.86,1.68-16.31.07-1.08-1.43-2.26-2.2-3.4-.71,1.14-1.85,2.22-2,3.44-.46,3-.47,6.06-.66,9.1l-1.22.19a8,8,0,0,1-.6-2.74c1.37-8.76,2.86-17.51,4.29-26.26a14.39,14.39,0,0,0,.34-4.21,2.91,2.91,0,0,0-1.88-1.83c-.53-.14-1.57.66-1.95,1.3a8,8,0,0,0-.74,2.83q-3.09,19.8-6.14,39.61c-.13.86-.34,1.72-.68,3.38-1-2.14-2-3.42-2.33-4.85-1.56-6.56-1.22-13.19-.52-19.82a28.51,28.51,0,0,0,.31-5.89c-.12-1.16-1.17-2.21-1.81-3.31-.84,1-1.74,2-2.47,3.17-.26.4-.12,1.07-.15,1.61-.3,4.26-.53,8.52-.92,12.77-.17,1.88-1.26,3.87-.89,5.57,1,4.72,1.26,4.67-3.27,7.11,0-1.18,0-2.23,0-3.29-.16-7.55-.27-15.1-.54-22.65a24.33,24.33,0,0,0-1.13-6.09,2.54,2.54,0,0,0-2.16-1.31c-.69.15-1.36,1.22-1.66,2-.24.65.12,1.5.14,2.27.28,9.94.56,19.88.78,29.83a17.1,17.1,0,0,1-.53,3.27l-3.88-3.1c-.56-8.85-1-17.37-1.69-25.88a30.51,30.51,0,0,0-1.73-7.31c-.25-.76-1.54-1.18-2.35-1.75a9.9,9.9,0,0,0-1.47,2.87c-.15,1,.44,2.13.55,3.21.81,8.36,1.57,16.72,2.27,24.19l-5,1.92,2.1,3.1,2.49,3.73c-2.9-.83-4.41-4.58-7.76-1-.68-2.65-1.51-4.55-1.61-6.49-.53-9.51-.84-19-1.3-28.54a33.87,33.87,0,0,0-.8-4.16,29.75,29.75,0,0,1-.68-4.38c0-.95.68-1.94.58-2.87a12.07,12.07,0,0,0-1.18-3.07,20.19,20.19,0,0,0-2.9,2c-.42.38-.45,1.21-.59,1.85q-3.65,15.86-7.27,31.71c-.14.64-.48,1.4-.27,1.92a17.08,17.08,0,0,0,1.69,2.75,9.7,9.7,0,0,0,2.35-1.8,7.24,7.24,0,0,0,.65-2.52q1.89-8.26,3.79-16.54l.55.05c.26,7.29.52,14.57.78,21.94-2.1-.23-4.2-1.11-4.72,2-.79,4.71-.3,5.48,5.24,7,.15,1.58.3,3.18.43,4.65l-4.49,3a37.89,37.89,0,0,1-3.8-5.15c-5-9.82-4.41-20.45-3.84-30.92.85-15.74,2.24-31.45,3.33-47.18.5-7.19.35-14.47,1.33-21.6,1.05-7.69,6.24-10.54,13.84-8.78,10.21,2.36,17.45,9.21,24.58,15.66-.66,2.06-1.61,3.84-1.76,5.69-.74,8.94-1.36,17.89-1.78,26.85-.06,1.17,1.09,3.3,1.94,3.44,2.21.37,2.34-1.6,2.42-3.35.33-7,.64-14,1.12-21,.2-3,.81-6,1.26-9.15,2.83,1.58,5.32,2.76,7.54,4.31a4.72,4.72,0,0,1,1.85,3.19c.12,3.27-.38,6.56-.22,9.83.06,1.11,1.23,2.94,2.09,3.07,2,.3,2.19-1.5,2.23-3.16.09-3.48.31-7,.48-10.64l5,.79c-.72,5.09-1.52,9.83-1.94,14.61-.08.92,1.38,2,2.12,3,.69-.95,1.77-1.82,2-2.88a75.57,75.57,0,0,0,1.59-10c.32-3.95,2.37-5.86,6.07-6.86,3.16-.84,6.1-2.48,9.23-3.45,7.17-2.22,14-.43,20.73,2.13,1,.38,1.7,1.61,2.54,2.45ZM83.3,700.12c2.7.36,4.06-.94,4.44-3.52.48-3.25,1-6.49,1.47-9.73.34-2.23.29-4.26-4-4.69,1.69-2.93,3-5.25,4.34-7.49,1.62-2.6,1.68-4.53-2-4.92.66-2.32,1.35-4.3,1.75-6.33.38-1.87,2.06-4.56-.87-5.32s-2.77,2.42-3.36,4.25c-1.73,5.4-3.36,10.83-5,16.25,0-4.38.67-8.59.8-12.81,0-1.62-1.16-3.28-2.13-5.78,1.16-2.5,2.74-5.88,4.29-9.26.7-1.52,1.59-3.4-.57-4.12-.79-.27-2.78,1.11-3.26,2.17-2.37,5.17-4.54,10.44-6.52,15.77-1.51,4-2.63,8.24-4.1,13-1.57-3.27-4.36-5.64-1.29-8.84.14-.14.12-.42.2-.62,1.3-3,.6-7.18,4.93-8.44.29-.08.51-.71.58-1.12.86-5.18,1.76-10.36,2.42-15.57.1-.77-1-1.68-1.52-2.52-.84.55-2.32,1-2.42,1.67-.65,4.56-2.63,8.56-4.47,12.69-1.45,3.25-2.22,6.82-3.49,10.89-1.41-4.62-1.3-4.6,0-10.53,1.62-7.15,3-14.35,4.51-21.52.51-2.45-.08-4-3-3.95a32.12,32.12,0,0,0,1.2-6c0-1.11-1-2.23-1.59-3.35a14.91,14.91,0,0,0-2.51,2.44c-.5.78-.42,1.91-.72,2.85-1.08,3.41-2.22,6.81-3.34,10.21L57,635.56c.51-2.86.93-5.75,1.55-8.59s1.48-5.45,2.14-8.2c2.34-9.8,4.53-19.63,7-29.38.63-2.46,2.22-4.68,3.77-7.83A77.35,77.35,0,0,0,87.56,606.8c7.52,7.77,11.93,17.05,15.62,27.05,4.28,11.57,9,23.09,18.49,31.59-1.08,3.46-2.3,6.77-3,10.17-.21,1,1,2.23,1.49,3.35.88-.78,2.17-1.39,2.57-2.37,1.11-2.71,1.85-5.57,2.7-8.25l9.7,3a49.19,49.19,0,0,0-2.5,4.51,63.73,63.73,0,0,0-3.29,8.89c-.22.88,1.2,2.18,1.86,3.28a11.76,11.76,0,0,0,2.29-2.58c1.16-2.46,2-5.08,3.07-7.59.89-2.06,2-4,2.86-5.92,4.5.18,9.3.29,14.09.6a47.94,47.94,0,0,1,9,1.11c15.61,4.13,27.14,13.25,33.84,28.17a4.9,4.9,0,0,0,2.61,2c2,.8,4.21,1,6,2,8.55,4.85,17,9.9,25.9,15.15-3.48,7.08-5.22,15.91-12.23,22a2.38,2.38,0,0,0-.55,2.22,2.84,2.84,0,0,0,2.3,1.2,6.36,6.36,0,0,0,3.27-2,51.22,51.22,0,0,0,5-7.67c2.49-5,4.66-10.11,7-15.3l7.06,1.1c-3.22,6.69-6,13.11-9.4,19.14a10.3,10.3,0,0,1-6.19,4.68c-7.51,1.34-15.15,2-22.76,2.69-1.85.18-3.76-.35-5.89-.57,6.23-5.8,8.58-13.2,11.49-20.25.29-.69-.77-1.94-1.2-2.93a9.38,9.38,0,0,0-2.62,1.41,9.87,9.87,0,0,0-1.24,2.66Q202,735.48,199,741.62c1.05-5,2.7-9.74,4.1-14.54a53.18,53.18,0,0,0,1.87-9c.12-1.09-1-2.32-1.53-3.48-.91,1-2.18,1.82-2.65,3-.69,1.7-.73,3.65-1.19,5.45-2.11,8.15-4.63,16.16-8.64,23.51l-19.32-5.48c3.72-5.53,7.3-10.77,10.77-16.09,1-1.48,2.54-3.46.22-4.83-2.13-1.24-2.93,1-3.89,2.4-3.5,5.18-7,10.36-10.58,15.46-.62.87-1.82,1.91-2.74,1.89-3.46,0-6.9-.49-9.86-.75,2.55-4.4,5.24-8.77,7.59-13.32.46-.89-.33-2.44-.55-3.68-1.09.62-2.58,1-3.22,1.9-2.32,3.43-4.37,7.06-6.52,10.61-.84,1.39-1.67,2.79-2.65,4.42l-4.67-.64c.72-1.31,1.27-2.23,1.73-3.2,2.78-5.84,5.62-11.65,8.24-17.56a30.93,30.93,0,0,0,2.12-7.23c.15-.86-.94-1.94-1.46-2.92-.89.62-2.33,1.06-2.58,1.87a39.13,39.13,0,0,1-6,11.76c-4.22,5.77-9.6,9.73-14.92,14.07-4.64,3.77-9.31,3.55-14.06.84-3.39-1.93-6.51-4.33-10.34-6.93,2.52-.51,3.49-2.47,6-1.27,1.27.62,4.29-.52,5.4-1.82A113.79,113.79,0,0,0,128,714.26c1.3-2,2.07-4.23.34-5.57A92.38,92.38,0,0,0,133,696.08c.29-1-.95-2.48-1.48-3.74a14.24,14.24,0,0,0-2.7,2.92c-2,3.92-3.84,8-5.73,11.94l-.88-.38a4.88,4.88,0,0,0-.07-1.92,19.88,19.88,0,0,0-1.81-2.7,15,15,0,0,0-2.41,2.52c-.41.68-.18,1.71-.33,2.57-1,5.86-2.06,11.75-7.38,15.55-.69.49-2,1.06-2.41.76a3.79,3.79,0,0,1-1.29-2.52,10.52,10.52,0,0,1,.54-2.85c1.22-6.88,2.74-13.72,3.53-20.64.49-4.22-1-5-4.73-3.32a4.84,4.84,0,0,0-2.27,3,48.91,48.91,0,0,0-.69,7.18c-.39,6-.75,11.92-1.15,18.26a42.93,42.93,0,0,1-3.33-3.69,3.6,3.6,0,0,1-.47-2.2c.2-3.43.51-6.87.75-10.3a52.27,52.27,0,0,1,.46-6.41c1.33-6.76,2.9-13.48,4.28-20.23a6.62,6.62,0,0,0-.19-3.51c-.33-.85-1.41-1.4-2.15-2.08a9.57,9.57,0,0,0-1.94,2.28c-.65,1.6-.8,3.4-1.45,5-3.27,8-6.63,15.95-10,23.9,0,.13-.35.15-.76.31L83.34,700c-2.13-2.25-1.88-5.76.65-9.11Zm167.23-29.57-.12-1c5-2.73,10-5.38,14.93-8.24.78-.46,1-1.87,1.48-2.84-1-.3-2.19-1.05-3.05-.79a34.15,34.15,0,0,0-5.65,2.58q-10.6,5.47-21.18,11a151.16,151.16,0,0,1,15.08-10c2.9-1.76,5.88-3.42,8.61-5.41.89-.66,1.09-2.24,1.61-3.4a38.23,38.23,0,0,0-3.84-.32c-.47,0-.93.53-1.4.82l-22.55,13.86-.76-.76q6.66-7.6,13.3-15.2a12.22,12.22,0,0,0,2.09-2.81,28.09,28.09,0,0,1,11.24-13c.92-.56,1.43-1.78,2.14-2.69-1.07-.54-2.41-1.78-3.15-1.49a16.46,16.46,0,0,0-5.7,3.53c-3.06,3.11-5.74,6.58-8.58,9.91-2.45-2-2.61-1.8-4.89.07-4,3.26-8.08,6.34-12.17,9.44a8.1,8.1,0,0,1-2.07.84l-.53-.84c.75-.68,1.47-1.4,2.25-2,2.72-2.21,5.58-4.27,8.11-6.67.87-.83.94-2.5,1.38-3.78-1.35.11-2.94-.19-4,.43a55.18,55.18,0,0,0-5.93,4.61l-.53-.6c.45-.54.86-1.13,1.36-1.62,6.63-6.53,11.47-14.34,16.12-22.3A32,32,0,0,0,248.46,600c-1-6.36-2.3-12.7-3.79-19-.66-2.78.34-4.07,2.66-5,4.26-1.74,8.46-3.62,12.75-5.3,11.71-4.59,22.36-2.21,31.43,6,6.91,6.24,12.9,17.24,5.18,28.19a20.07,20.07,0,0,0-1.54,2.9c-2.36,4.93-5,9.73-4.88,15.5a4.52,4.52,0,0,1-1.78,2.91c-3,2.39-6.18,4.5-9.12,6.93-.78.65-.92,2.07-1.36,3.14a18.44,18.44,0,0,0,3.51.45,4.53,4.53,0,0,0,2-1.09c2.57-1.82,5.12-3.67,7.87-5.64,2.94,7.71,4,15.43,1.37,23.2-2.31,6.78-7,11.2-14.36,12.46-4.09.7-8.15,1.65-12.24,2.37C261,668.91,255.74,669.71,250.53,670.55ZM129,639.75l.66-.69c1.31,1.06,2.59,2.16,3.93,3.18,1.53,1.15,3.05,3.91,5.08,1.39,1.75-2.17-1.06-3.29-2.2-4.71-.69-.86-1.82-1.75-1.85-2.66-.1-3.18-1.67-4.42-4.33-2.6-2.19,1.51-3.46.81-5.07-.63-2.78-2.47-5.63-4.87-8.52-7.21-1.31-1.05-3-2.74-4.39-.66-.45.66.62,2.94,1.57,3.89,2.48,2.45,5.47,4.4,7.89,6.9,1.58,1.63,2.52,3.88,3.74,5.85l-1,.69c-1.53-1.69-3-3.48-4.63-5a3,3,0,0,0-2.57-.5c-.52.18-.75,1.38-1,2.17s0,1.85-.39,2.07c-2.59,1.47-1.73,2.83-.08,4.3,2.36,2.12,4.64,4.33,7.06,6.37,1.42,1.19,3.06,2.11,4.65,3.19-1.21,1.57-2.65,3.43-4.53,5.84-2.47-3.47-5.36-6.56-7.1-10.19-4.25-8.87-8.13-17.93-11.83-27A57.39,57.39,0,0,0,94.66,608c-4.73-5.58-9.23-11.38-13.54-17.29-1.94-2.66-3.18-5.84-5-9.29,2.45-.7,4.25-1.77,5.92-1.6a127.75,127.75,0,0,1,15.06,2.47c4,.93,6.62,3.87,8.67,7.49,3.22,5.67,5.75,11.82,11.12,16.08,4.37,3.46,8.54,7.17,12.76,10.83a27.83,27.83,0,0,1,2.41,2.54c-1.06,1.89-2.35,3.15-2.36,4.42,0,3.25,2.19,5.05,5.14,6-.37,2,3.82,11.08,5.6,11.93a2.45,2.45,0,0,0,2.09.08c.55-.45,1.12-1.7.87-2.15-1.75-3.19-3.73-6.25-5.61-9.37a20.37,20.37,0,0,1-.91-1.88l1-.54c2.85,3.6,5.69,7.21,9,11.35l-9.57,8.2ZM189.46,682l-1.13.87c-2.58-3.42-5.16-6.84-7.34-9.75l5.6-3.65c-1-1.14-2.16-3.25-3.11-3.17-1.41.11-2.7,1.77-4.19,2.88a7.35,7.35,0,0,1-1.23-1.26c-.81-1.13-1.49-2.35-2-3.15,6.65-11.57,6.84-23.59,4.05-36.58l5.18,3.16c-3.56,1.16-2.94,2.93-1.57,4.91a7.63,7.63,0,0,1,1.29,2.62c1.7,8.68,3.4,17.36,4.87,26.08.25,1.5-.78,3.18-.91,4.79-.08,1,.11,2.86.69,3.11,4.49,1.93,6.18,6,7.46,10,1.5,4.7,2.16,9.68,3.18,14.54l-.7.19c-2.07-3.08-4.14-6.16-6.43-9.55,3.4-1.14,2.56-3.5,1.38-5.56a71.78,71.78,0,0,0-5.63-8.42c-.52-.68-2-.59-3.11-.86,0,1.17-.51,2.55,0,3.46A43.88,43.88,0,0,0,189.46,682ZM170.8,752.53a14.26,14.26,0,0,1,2.43,1.42c2.69,2.72,5.49,5.36,8,8.28,9.57,11.35,12.41,12.07,26.66,7.64a19,19,0,0,1,9.27-.25c4.35.94,8.44,3,12.74,4.26,5.12,1.49,10.35,2.6,15.51,4a23.71,23.71,0,0,1,3.69,1.83c-4.82,1.88-8.7,3.21-12.21-.67a2.65,2.65,0,0,0-1.72-.88,40.75,40.75,0,0,0-4.24.48l.8,3.77c-.3-.08-1.3-.08-1.54-.5-2.77-5-7.78-6.29-12.64-7.78-.81-.25-1.92.45-2.89.71a10.39,10.39,0,0,0,.86,2.85,8.36,8.36,0,0,0,2.17,1.73,16.13,16.13,0,0,1-5.47-.55c-4.68-1.16-9.28-2.75-14-3.48C184.65,773.29,177.23,764.12,170.8,752.53Zm157.53-14c2,1.67,4.11,3.39,6.18,5.16,2.24,1.93,1.93,4.14.18,6s-2.77,5.45-6.68,3.83c-1.77-.73-2.62.17-3,1.87-.2.86-.44,2-1.06,2.42-3.69,2.46-7.49,4.74-10.51,6.62L309.58,762c-.59,1.28-1.84,2.68-1.65,3.83.66,3.85-2.11,4.72-4.45,6.24L299,763.54C313.22,760.45,320.93,750.14,328.33,738.53ZM177.47,627.27c-1.09.58-1.92,1.32-2.22,1.14-2.83-1.64-4.57.43-5.86,2.08a34.67,34.67,0,0,0-5,8.37c-2.22,5.57-4,11.34-5.88,17l-5,.07a43.44,43.44,0,0,1,2.28-5.79c2.18-3.78,4.53-7.47,6.93-11.12,1-1.46,2.08-3.06.16-4.14-.75-.42-3,.52-3.65,1.47-3.08,4.75-5.84,9.71-8.71,14.6-.49.82-.76,2-1.48,2.4-3.62,2.16-6.67,1.5-10-1.86a83.63,83.63,0,0,0,7.8-6.31c2.36-2.39,4-5.46,6.33-7.92a75.44,75.44,0,0,1,9.67-9.17C167.1,624.93,172,625.31,177.47,627.27ZM206.58,765c-10.5,4.87-13.78,4-21.22-4.91a87.69,87.69,0,0,0-9.54-9.92,8.38,8.38,0,0,0-5.88-1.94c-2.73.36-3.69-.76-4.75-3.08C181.77,746.37,195.53,752.77,206.58,765ZM172.94,662,163,659.45c-1.59-4.38,7.59-25.36,13.08-28.23C178.65,642,177.24,652.25,172.94,662ZM293.87,779.37c-3.33-3.71-6.61-7.43-10-11.06-.56-.6-1.93-1.25-2.39-1-.74.44-1.62,1.86-1.39,2.46a15.72,15.72,0,0,0,2.84,4.66c1.79,2.06,3.85,3.89,6.3,6.31l-3.41.19a43.61,43.61,0,0,0-13.47-12.42c-.44-.27-2.07.33-2.14.72a3.78,3.78,0,0,0,.52,2.86,47.3,47.3,0,0,0,4.46,4l-.5.6-10-6.72a53.9,53.9,0,0,1,30.69-5.88,65.42,65.42,0,0,0,2.78,7c2,3.74,2,4.19-1.56,6.53C295.91,778.12,295.17,778.56,293.87,779.37Zm-106-145.11.86-.73L201,645.78c-2.66.77-4.3,1.69-2.91,4.07,3.11,5.3,3,11,2.28,16.82-.36,2.79-.9,5.56-1.46,9-1.48-2.48-3.95-4.75-4.11-7.18C194,656.72,192.3,645.24,187.9,634.26Zm50,109.11c.66-1.35,1.26-2.46,1.75-3.62,2.12-5,4.7-9.92,6.11-15.14.95-3.51,3.18-3.7,5.47-3.45s4.11,1.32,5.56-1.41c.28-.52,1.88-.34,2.92-.5C259.8,725.1,244.66,741.74,237.88,743.37Zm-32.92-90c3.14,5.38,5.9,11.79,5.32,19.45l-5.42-1.69C204.9,664.76,204.93,658.71,205,653.42Zm-64.18,5.12-5.66,7.7a15.28,15.28,0,0,1-1.61-.23,34.67,34.67,0,0,1-3.46-.94c-2.51-.87-3.12-2.38-1.33-4.33a7.88,7.88,0,0,1,4.41-2.21c2.16-.31,4.6,1.64,6.58-.81C139.72,657.71,140.49,658.32,140.78,658.54Zm128,119.71c-4.42.13-8.44.37-12.45.3-1.23,0-2.45-.92-3.55-1.37,5.42-6,10.2-4.11,14.85.13C267.94,777.6,268.29,777.85,268.78,778.25ZM153.38,660.51a17,17,0,0,0-2.44,2.94c-2.58,5-3.48,5.42-10.37,3.13.92-3.33,3.61-4.43,6.54-5.09C149.16,661,151.28,660.83,153.38,660.51Zm22.31,13.13L164,669.16l2.34-2.26c1.33.62,2.49,1.65,3.61,1.62C174.1,668.39,174.47,668.54,175.69,673.64ZM154,667.53c1.8-4.82,6.27-6,9.92-4.07C160.9,665.71,158.51,669.05,154,667.53Zm61.13-1.85c-2.59-4.91-2.47-6.27.24-6.94,1.7-.41,3.45-.6,5.76-1Zm-81.67-15c-1.61.09-2.94.48-4,.13a4,4,0,0,1-2.34-2.28c-.29-1.11.29-2.45.57-4.22C129.11,647.13,133.34,647.12,133.45,650.72ZM208,649.47l-1.65-3.23c1.19-1.29,2.21-2.4,3.2-3.46l3.87,1ZM93,703.21l.88-.25c.28,3.6.55,7.21.83,10.82C90,710.59,92.32,706.84,93,703.21ZM75.46,670.14l.89.2q-1.53,7-3,14L71.55,684C72.71,679.32,74,674.71,75.46,670.14ZM206.11,634l1.08.83-2.92,8.33-2.48-3.05Zm30.74,19,.55.79-13.62,9.66-.78-1.13ZM203,678c3.44-.25,5.91,2.79,6.22,6.63C207.05,682.38,205,680.2,203,678ZM143.07,733c-2,5.77-2,5.77-6.71,5ZM61.46,641.23c-.53,2.6-1.06,5.19-1.68,8.2C57.41,645.81,59.31,643.45,61.46,641.23Zm83.67-12.63.77-.63,4.5,5.33-1.07.87Z"/><path class="cls-2" d="M138.72,720.52c3.16,2.11,4.47.47,5.33-2.3,1.41-4.49,3-8.91,4.24-13.45.3-1.1-.72-2.56-1.14-3.85a16.9,16.9,0,0,0-2.92,2.87,14.86,14.86,0,0,0-1.18,3.74c-.47,1.63-.61,3.49-3.17,3.2-.5-.06-1.23.83-1.67,1.42a67,67,0,0,1-19.34,17.94c-.77.46-.94,1.91-1.39,2.9l5.13,1.41c1.53,1.87,2.34,1.84,4.75-.94C131.08,729.17,134.85,724.92,138.72,720.52Z"/><path class="cls-2" d="M182,741.84c1.32,2.23,2.86,2,4.09.51a97.54,97.54,0,0,0,5.87-7.84,47.34,47.34,0,0,0,4.08-7.07c.39-.87-.35-2.24-.58-3.39-1,.4-2.43.51-3,1.25-3.42,4.78-6.66,9.69-9.9,14.59A7,7,0,0,0,182,741.84Z"/><path class="cls-2" d="M211.21,744.79c1.23-.19,3.19,0,3.56-.63q4.39-7.83,8.17-16c.3-.65-1-2-1.55-3.09-.86.67-2.06,1.17-2.53,2.05-2.4,4.53-4.56,9.19-6.93,13.74a11.35,11.35,0,0,1-2.33,2.37C210.14,743.74,210.68,744.26,211.21,744.79Z"/><path class="cls-2" d="M96.36,628.52c-3.82,1.42-8.27,9.91-7.23,13.21a2.8,2.8,0,0,0,1.93,1.71,2.64,2.64,0,0,0,2-1.58c.77-4,2.24-7.43,5.35-10.18a2.63,2.63,0,0,0-.06-2.56C98,628.56,96.73,628.61,96.36,628.52Z"/><path class="cls-2" d="M85,628c.28.15,1.09.94,1.65.79a3.39,3.39,0,0,0,2-1.76c1.28-3.07,2.41-6.2,3.45-9.36.23-.71.15-2-.28-2.31a3.2,3.2,0,0,0-2.64-.23C86.59,616.29,83.62,624.83,85,628Z"/><path class="cls-2" d="M105,666.19c1.35,1.91,3.44,2.21,4.19.51a43.89,43.89,0,0,0,2.88-8.93c.36-1.78-2.24-3.17-2.92-1.88A95.46,95.46,0,0,0,105,666.19Z"/><path class="cls-2" d="M146.77,686.7c1.09.65,1.86,1.47,2.47,1.36a3,3,0,0,0,2-1.59,25.08,25.08,0,0,0,1.48-6.34c.07-1-1-2.09-1.57-3.13-.85.66-2.15,1.16-2.45,2A76.26,76.26,0,0,0,146.77,686.7Z"/><path class="cls-2" d="M94.59,648.54c.33.19,1,.82,1.58.84a2.39,2.39,0,0,0,1.85-.94,54.2,54.2,0,0,0,2.84-6.55,2.3,2.3,0,0,0-.65-2,2.52,2.52,0,0,0-2.09-.26C96,640.36,93.55,646.15,94.59,648.54Z"/><path class="cls-2" d="M244,533c-3.31-.95-3.95-.55-4.08,2.33a68,68,0,0,1-8.72,30.9c-.43.76-1.17,1.49-1.23,2.28-.08,1,.11,2.36.74,2.79s2.11,0,2.73-.63a14.21,14.21,0,0,0,2.34-3.52c5.1-9.25,7.49-19.31,8.56-29.71a21.8,21.8,0,0,0-.47-4.51Z"/><path class="cls-2" d="M156.49,552.81c1.64,2,1.21,6,4.49,4.58,2.88-1.23.09-3.76-.16-5.73-.86-6.58-1.89-13.16-2.47-19.77-.36-4,.09-8.08-.1-12.1,0-1-1.16-1.95-1.79-2.93-.79.75-1.6,1.48-2.37,2.25-.12.12-.1.41-.11.63A117.7,117.7,0,0,0,156.49,552.81Z"/><path class="cls-2" d="M208.86,557.29c.94.52,1.72,1.29,2.15,1.13a4.43,4.43,0,0,0,2.43-1.85c2-4.36,4.05-8.75,5.68-13.28a52.15,52.15,0,0,0,2.43-10.19c.15-1.1-1.2-2.4-1.86-3.61-.79,1-1.91,1.86-2.32,3-2.51,7-4.87,14-7.27,21C209.69,554.7,209.32,555.9,208.86,557.29Z"/><path class="cls-2" d="M182.59,547.39c.88.44,1.69,1.21,2.27,1.06.78-.2,1.95-1.08,2-1.71.17-4,.16-8.06,0-12.08a2.66,2.66,0,0,0-1.89-1.77c-.66,0-2,1-2,1.54C182.65,538.66,182.67,542.89,182.59,547.39Z"/><path class="cls-2" d="M231.93,684.53a19.16,19.16,0,0,0,1.71,1.32c9.52,5.64,19,11.36,28.61,16.82a30.71,30.71,0,0,0,8,2.69c.63.16,2.09-1,2.26-1.7s-.81-1.92-1.58-2.34c-6.24-3.34-12.62-6.44-18.84-9.83-5.38-2.93-10.57-6.23-16-9.16-.92-.49-2.43-.11-3.58.2C232.19,682.62,232.13,683.81,231.93,684.53Z"/><path class="cls-2" d="M292.47,731.44c-.19-1.18.07-2.91-.62-3.46q-11.87-9.51-24-18.64c-.79-.59-2.32-.19-3.51-.25.3,1.22.17,2.95.95,3.59,7.15,5.9,14.45,11.61,21.72,17.37,1.27,1,2.59,2,3.89,2.94Z"/><path class="cls-2" d="M260.76,710.48c-.25-1.16-.1-2.86-.82-3.41-7.17-5.49-14.49-10.8-21.77-16.14a3.63,3.63,0,0,0-1.71-.89c-.79,0-2,.12-2.27.6a3,3,0,0,0,.15,2.6,15.87,15.87,0,0,0,3,2.5c5.21,4.14,10.34,8.39,15.68,12.36,1.91,1.43,4.32,2.18,6.5,3.23C259.93,711.05,260.35,710.77,260.76,710.48Z"/><path class="cls-2" d="M274.19,696.42c.48-.87,1.2-1.61,1.16-2.3a3,3,0,0,0-1.36-1.94c-6.91-3.95-13.86-7.82-20.81-11.7a8.92,8.92,0,0,0-2.91-1.42c-.9-.1-1.89.56-2.83.88.32.94.36,2.36,1,2.75,7.28,4.42,14.64,8.71,22,12.93C271.46,696.17,272.77,696.13,274.19,696.42Z"/><path class="cls-2" d="M220.69,691.44a27.68,27.68,0,0,0,2.06,2q8.79,6.81,17.63,13.57a8.22,8.22,0,0,0,1.38.87c1.67.83,3.7,2,4.88-.19s-1.25-2.65-2.6-3.64c-6.14-4.53-12.19-9.18-18.28-13.79a7.3,7.3,0,0,0-2.11-1.48,2.88,2.88,0,0,0-2.35.37C220.81,689.64,220.86,690.69,220.69,691.44Z"/><path class="cls-2" d="M278.87,749.75c.64-1,1.35-1.63,1.31-2.2a3.2,3.2,0,0,0-1.12-2.15c-5.68-4-11.38-8.07-17.21-11.89-.91-.6-2.51-.14-3.79-.17.39,1.18.4,2.85,1.22,3.48,4.92,3.79,10,7.4,15.09,10.94A26,26,0,0,0,278.87,749.75Z"/><path class="cls-2" d="M274.67,602.6c1.22,2.48,3.12,2.2,4.92,1,5.08-3.41,10.13-6.87,15.06-10.49.65-.48.52-2,.75-3.07-1.19-.07-2.69-.64-3.51-.12-4,2.5-7.76,5.29-11.61,8a2.72,2.72,0,0,1-2,.66L288.5,587.7c.6-.64,1.47-1.21,1.68-2a3.36,3.36,0,0,0-.37-2.63c-.33-.43-1.65-.46-2.32-.18a7.57,7.57,0,0,0-2.24,1.86c-6.8,7-13.62,13.89-20.29,21-.72.77-.5,2.41-.72,3.64,1.17-.14,2.65.11,3.46-.52C270.1,607,272.24,604.83,274.67,602.6Z"/><path class="cls-2" d="M281.48,576.73a8.17,8.17,0,0,0-1.05.78c-3.95,4.08-8,8.06-11.75,12.34-1.28,1.48-1.85,3.69-2.4,5.66a2,2,0,0,0,3.71,1.22c2.54-6.81,8.45-10.75,13.06-15.81a4.81,4.81,0,0,0,1-3.39c-.07-.76-1.23-1.42-1.91-2.12Z"/><path class="cls-2" d="M285.72,604.06a69.18,69.18,0,0,0-6.67,4.58c-.68.58-.63,2-.91,3.06,1.06.13,2.28.66,3.16.31,1.49-.59,2.64-2.06,4.14-2.55,1.84-.59,3.89-.51,5.83-.81a30.69,30.69,0,0,0,3.06-.81c-.46-1.11-.73-3.06-1.39-3.19A48.47,48.47,0,0,0,285.72,604.06Z"/><path class="cls-2" d="M273.55,624.17c1.83-1.73,3.67-3.26,5.21-5a2.65,2.65,0,0,0-.07-2.6,2.58,2.58,0,0,0-2.53-.31,36.35,36.35,0,0,0-5.39,4.67,2.61,2.61,0,0,0,0,2.57C271.2,624,272.43,623.93,273.55,624.17Z"/><path class="cls-2" d="M83.27,587.64c4.41,5.56,8.3,10.68,12.42,15.6a130.91,130.91,0,0,0,9.38,10c.85.82,2.57.73,3.89,1.06-.25-1.35,0-3.07-.81-4-4.84-5.76-10-11.24-14.82-17-2.1-2.54-3.41-5.72-5.36-8.4-.57-.8-2.09-.92-3.18-1.35C84.3,584.9,83.8,586.22,83.27,587.64Z"/><path class="cls-2" d="M114,617.6c.64.64,1,1,1.4,1.4,3.14,2.7,6.21,5.49,9.5,8,.86.66,2.41.41,3.65.58-.25-1.25-.06-3-.81-3.67a117.22,117.22,0,0,0-9.7-8.24c-.73-.56-2.23-.44-3.24-.17C114.37,615.62,114.25,616.91,114,617.6Z"/></g><g class="cls-1"><path class="cls-2" d="M1370.38,206.1c-3.54,1.07-7.09,1.6-10.11,3.17-8.16,4.24-12.2,13.5-10.7,24,.56,3.9,1.72,7.71,2.65,11.56a13.75,13.75,0,0,1-1,9.38,62.67,62.67,0,0,1-3.67,7.33c-7.72,11.77-1.48,23.14,5.68,29.38,9,7.86,19.41,10.09,30.85,5.53a83,83,0,0,1,9.76-3.37c-1.37,1.17-2.69,2.42-4.14,3.5-5.25,3.92-7.27,8.69-5.22,15.31,2,6.33,4.31,12.38,9.42,16.74a22.84,22.84,0,0,0,7.89,4.05,32.34,32.34,0,0,0,8.94,1.26,31.52,31.52,0,0,0,6.86-1.14,9.23,9.23,0,0,0,2.33-1c11.25-5.93,21.12-3.08,30.22,4.74,3,2.58,5.93,5.28,9.14,7.58,5.6,4,11.64,7.19,18.83,6.53,5.39-.5,9.14-3.42,10.49-8.84a39,39,0,0,0,1.13-7c1.16-17.68,2.22-35.37,3.35-53.06.54-8.56.53-17.09-1.6-26.21,1.77,1.43,3,2.47,4.33,3.49,6.78,5.36,13,11.15,16.5,19.35a14.64,14.64,0,0,0,9.31,8.16c6.33,2.08,12.66,4,19.27,1,.38-.18,1-.3,1.3-.1,2.41,1.89,4,.25,5.21-1.42,1.74-2.41,3.72-4.92,4.52-7.7,2.32-8.06,4.1-16.27,6.1-24.43a89.32,89.32,0,0,0,2.19-9,52.85,52.85,0,0,0,.64-11.76c-1.84-19.49-9.5-36.67-21.1-52.3-8.06-10.85-16.34-21.44-27-29.89a28.08,28.08,0,0,0-18-6.51c-8.84,0-17.69-.53-27-.85,1.36-1.88,1.1-3.06-.42-4.43a19.82,19.82,0,0,1-3.59-5,47,47,0,0,0-15-16.83,27.7,27.7,0,0,0-8.2-3.65c-8.4-2.17-16.92-3.88-25.33-6-7.85-2-15.51-1.25-23.21.78-1.61.43-3.42.13-5.14.16-.37,0-.84-.19-1.09,0-4.37,2.9-8.9,1-13.37.49-3-.37-6-1.07-9-1.31-5.93-.49-11.44.7-16.16,4.63-2.46,2-4.93,4.12-7.56,5.93-5.71,3.94-11.53,7.72-17.31,11.56-1,.68-2.14,1.24-3.08,2-9.43,7.75-7.24,12.57-.19,17.81a17.4,17.4,0,0,0,2.08,1.47c8.47,4.56,13.1,11.67,16.07,20.83A48.15,48.15,0,0,0,1359.92,200C1363.37,201.91,1366.75,204,1370.38,206.1ZM1422,192.44a3.42,3.42,0,0,0,.31,4.83,13.83,13.83,0,0,1,2.37,3.48,4.37,4.37,0,0,1-.15,2.48c-3.47.09-2.76,2.91-3.15,4.87l-2.41.55-3.53-3.22c0-1.1.07-2.5.11-3.9l-4.52.27c.07-.93,7.61-7.52,11.08-9.33a47.54,47.54,0,0,0,3.6-4.57c.45-.71.22-1.85.3-2.79-1,0-2.27-.24-3,.24a23,23,0,0,0-3.45,3.32c-6.7,6.78-14.34,12-23.9,13.75-4.25.77-8.62.89-12.89,1.6a15.73,15.73,0,0,1-10.58-1.56c-3.63-2-7.22-4.11-10.79-6.23-11-6.54-17.73-16.45-21.55-28.41-2-6.37-4.69-12.13-10.57-15.87a11.81,11.81,0,0,1-1.56-1.42c7.57-15.87,19.79-22.81,37-19.87-.87,1.41,0,2.35,1.53,3.26a53.91,53.91,0,0,1,5.81,4c3.91,3.11,7.73,6.35,11.61,9.5,1.22,1,2.67,2.55,4.09.74s-.52-2.67-1.65-3.58c-6.17-5-12.38-10-18.48-15,.43-.16,1.21-.44,2-.76,5.18-2.24,10.62-4,15.44-6.85,5.8-3.39,11.35-4.55,17.73-2a162.59,162.59,0,0,0,16.33,5.55c6,1.66,10,6,15.07,9.63-4.68.2-8.79.44-12.9.51a4,4,0,0,1-2.29-1c-3.38-2.86-6.63-5.88-10.1-8.62-.67-.53-2.12-.08-3.21-.08a12.44,12.44,0,0,0,.87,2.91c.4.68,1.29,1.08,1.93,1.63l7,6-8.29,1.79.44-.88c-4.59-3-9.18-6.11-13.78-9.14a1.06,1.06,0,0,0-.8-.2c-.73.26-1.94.53-2,1a3.79,3.79,0,0,0,.79,2.37c.27.41,1,.48,1.47.8,3.3,2.2,6.58,4.43,9.58,6.46-4,2.41-8.08,4.07-11.07,6.89-4.21,4-7.74,8.73-11.32,13.34-1.89,2.43-2.53,5.54-.71,8.23s4.62,1.79,7.25,1.22c1.14-.25,2.59-.57,3.51-.1a73.44,73.44,0,0,1,8.92,5.29c5.7,4,11.21,8.31,16.92,12.33.83.59,2.3.28,3.47.38-.16-.91,0-2.26-.55-2.67q-9.33-7.12-18.87-14a34.52,34.52,0,0,0-4.64-2.41l.66-1.12c2.9,1.82,5.91,3.47,8.66,5.48,5,3.62,9.7,7.51,14.64,11.13.76.55,2.11.28,3.19.39a10.23,10.23,0,0,0-.86-3.16,11.24,11.24,0,0,0-2.59-2.15l-10.8-8.37.57-.86L1432.08,182c-3.22,2-3.58,4.44-1.44,8,.56.95.95,2,1.64,3.49-1.37-.91-2.55-2-2.83-1.82C1427.06,193.33,1424.38,191.22,1422,192.44Zm-25.45,132.89c-1.23-1.25-2.85-2.29-3.62-3.78a95.86,95.86,0,0,1-4.63-10.59c-1.7-4.56-.4-8.22,3.62-11.08,2-1.41,4.29-2.93,5.33-5,2-3.94,7-7.67,2.23-12.9-.28-.31-.26-.9-.36-1.36-.51-2.2-.88-4.45-1.54-6.61-4.8-15.77,3.59-27.13,12.43-38.38l3.19,3.12c-2.69,6.22-5.42,12.29-7.87,18.48-.37.94.29,3.18,1,3.48,1.83.75,2.2-1.06,2.57-2.45a16.61,16.61,0,0,1,.77-2.72c1.92-4.22,3.91-8.4,6.12-13.13,2.19,3.13,4.06,2.8,6.35.6-2.62,8.07-3.62,15.82-7,23a55.55,55.55,0,0,0-5.87,22.87c0,1,1.15,2,1.77,2.94.65-.89,1.78-1.75,1.87-2.69,1.21-12.89,6.1-24.46,12.51-35.49,1.17-2,1.39-3.43-1.1-4.48.62-2,1.2-3.85,1.78-5.68l3.36.54c-.64,2.22-1.67,4.43-1.88,6.71-.82,9-1,18.05-4.27,26.64a2.38,2.38,0,0,0-.25,1.38c.33,1.12.82,2.19,1.24,3.29.8-.84,2-1.54,2.35-2.54,1.39-3.57,2.64-7.21,3.73-10.88.54-1.87,1.35-4.12.78-5.76-1.79-5.1.48-8.95,3-13.35.13,2-.3,3.93.46,5.05,1.39,2.07.7,3.92.46,5.92-.55,4.68-1.16,9.36-1.45,14.05-.05.94,1.23,1.95,1.9,2.93.61-1,1.59-1.91,1.75-3,.4-2.58.41-5.22.58-7.84l1-.17a7.17,7.17,0,0,1,.51,2.37c-1.18,7.55-2.46,15.08-3.69,22.62a12.08,12.08,0,0,0-.3,3.62,2.48,2.48,0,0,0,1.62,1.58c.46.12,1.36-.57,1.68-1.12a6.77,6.77,0,0,0,.64-2.44q2.65-17.06,5.28-34.11c.12-.75.3-1.49.59-2.92a24,24,0,0,1,2,4.18c1.34,5.65,1,11.36.45,17.08a24,24,0,0,0-.27,5.07c.11,1,1,1.9,1.56,2.85.72-.91,1.5-1.77,2.13-2.73.23-.35.1-.92.13-1.39.25-3.67.45-7.34.79-11,.15-1.62,1.09-3.33.76-4.8-.89-4.06-1.08-4,2.83-6.12,0,1,0,1.92,0,2.83.14,6.5.23,13,.47,19.51a21,21,0,0,0,1,5.25A2.18,2.18,0,0,0,1459,288c.6-.12,1.18-1.05,1.44-1.74s-.11-1.3-.13-2c-.24-8.56-.48-17.13-.67-25.69a16.17,16.17,0,0,1,.45-2.82c1.48,1.18,2.6,2.06,3.35,2.67.48,7.62.86,15,1.45,22.29a26.62,26.62,0,0,0,1.49,6.3c.23.66,1.33,1,2,1.5a8.41,8.41,0,0,0,1.27-2.47c.12-.88-.39-1.83-.48-2.76-.69-7.2-1.35-14.4-2-20.84l4.28-1.65-1.81-2.67-2.15-3.21c2.5.71,3.8,3.94,6.69.86.59,2.28,1.3,3.92,1.39,5.59.45,8.19.72,16.39,1.12,24.58a30.06,30.06,0,0,0,.68,3.58,25.81,25.81,0,0,1,.59,3.78c0,.82-.59,1.67-.5,2.47a10.73,10.73,0,0,0,1,2.64,18.82,18.82,0,0,0,2.5-1.68c.36-.33.38-1,.51-1.6q3.13-13.65,6.25-27.31c.13-.55.42-1.21.24-1.66a15.43,15.43,0,0,0-1.46-2.37,8.8,8.8,0,0,0-2,1.55,6.14,6.14,0,0,0-.56,2.17l-3.27,14.26-.47,0c-.22-6.28-.44-12.55-.67-18.89,1.81.19,3.62,1,4.06-1.73.69-4.05.26-4.71-4.51-6-.13-1.36-.26-2.74-.37-4l3.87-2.58a32.78,32.78,0,0,1,3.27,4.43c4.29,8.46,3.8,17.62,3.31,26.64-.73,13.56-1.93,27.09-2.87,40.63-.43,6.21-.3,12.47-1.14,18.61-.91,6.63-5.38,9.08-11.93,7.57-8.79-2-15-7.94-21.17-13.49.57-1.78,1.38-3.31,1.52-4.9.64-7.7,1.17-15.42,1.53-23.13,0-1-.94-2.84-1.67-3-1.9-.32-2,1.37-2.09,2.88-.28,6-.54,12.05-1,18.07-.18,2.59-.7,5.16-1.09,7.88-2.44-1.36-4.58-2.37-6.49-3.71a4,4,0,0,1-1.59-2.75c-.11-2.81.32-5.65.18-8.46,0-1-1.05-2.53-1.8-2.65-1.75-.26-1.88,1.3-1.92,2.72-.08,3-.26,6-.41,9.17l-4.33-.68c.62-4.39,1.31-8.47,1.67-12.58.06-.8-1.19-1.72-1.83-2.58-.6.83-1.53,1.58-1.73,2.49a64.72,64.72,0,0,0-1.37,8.64c-.27,3.4-2,5.05-5.23,5.9-2.72.73-5.25,2.14-8,3-6.17,1.91-12.08.37-17.85-1.83-.87-.34-1.47-1.39-2.19-2.11Zm138.36-144c-2.33-.31-3.5.82-3.83,3-.41,2.8-.85,5.59-1.27,8.39-.29,1.92-.25,3.67,3.43,4-1.45,2.53-2.54,4.53-3.74,6.45-1.39,2.25-1.44,3.91,1.74,4.24-.56,2-1.15,3.71-1.5,5.46s-1.77,3.93.75,4.58,2.38-2.08,2.89-3.66c1.5-4.65,2.9-9.33,4.34-14,0,3.78-.58,7.4-.69,11,0,1.4,1,2.83,1.84,5-1,2.15-2.36,5.06-3.7,8-.6,1.31-1.37,2.93.5,3.55.68.23,2.39-.95,2.81-1.87q3-6.67,5.61-13.59c1.3-3.48,2.26-7.09,3.53-11.16,1.35,2.81,3.75,4.85,1.11,7.61-.12.12-.1.36-.17.54-1.12,2.58-.51,6.17-4.25,7.26-.24.07-.44.62-.5,1-.73,4.46-1.51,8.93-2.08,13.41-.08.66.85,1.45,1.31,2.17.72-.47,2-.87,2.08-1.44.56-3.92,2.27-7.37,3.85-10.93a88,88,0,0,0,3-9.37c1.22,4,1.12,4,0,9.06-1.39,6.16-2.57,12.36-3.88,18.54-.44,2.11.07,3.47,2.54,3.4a27.84,27.84,0,0,0-1,5.14c0,.95.88,1.92,1.37,2.88a13,13,0,0,0,2.16-2.1,11,11,0,0,0,.62-2.45c.93-2.94,1.91-5.87,2.87-8.8l1,.28c-.44,2.47-.8,4.95-1.34,7.4s-1.28,4.7-1.84,7.07c-2,8.44-3.9,16.91-6.06,25.31-.54,2.12-1.91,4-3.25,6.74a66.57,66.57,0,0,0-13.88-21.74c-6.47-6.7-10.27-14.69-13.45-23.3-3.68-10-7.76-19.89-15.93-27.22.93-3,2-5.82,2.63-8.76.18-.83-.82-1.91-1.28-2.88-.76.67-1.87,1.2-2.21,2-1,2.34-1.6,4.8-2.33,7.11l-8.36-2.61a42.57,42.57,0,0,0,2.16-3.88,54.63,54.63,0,0,0,2.83-7.66c.19-.75-1-1.87-1.6-2.82a10.29,10.29,0,0,0-2,2.22c-1,2.12-1.71,4.38-2.64,6.54-.77,1.77-1.68,3.48-2.46,5.1-3.88-.16-8-.25-12.14-.52a40.55,40.55,0,0,1-7.72-1c-13.45-3.56-23.38-11.4-29.15-24.26a4.27,4.27,0,0,0-2.25-1.69c-1.69-.69-3.62-.87-5.18-1.75-7.36-4.19-14.63-8.54-22.31-13.05,3-6.11,4.5-13.71,10.54-18.93a2.06,2.06,0,0,0,.47-1.91,2.46,2.46,0,0,0-2-1,5.49,5.49,0,0,0-2.82,1.72,42.92,42.92,0,0,0-4.3,6.6c-2.15,4.29-4,8.71-6.06,13.19l-6.08-.95c2.77-5.76,5.14-11.3,8.09-16.5a8.9,8.9,0,0,1,5.34-4c6.47-1.16,13.05-1.7,19.6-2.32a27.44,27.44,0,0,1,5.07.49c-5.36,5-7.39,11.37-9.89,17.44-.25.6.66,1.67,1,2.53a8,8,0,0,0,2.26-1.22,8.33,8.33,0,0,0,1.07-2.29q2.51-5.3,5-10.58c-.9,4.31-2.32,8.38-3.53,12.52a45.66,45.66,0,0,0-1.6,7.74c-.11.94.84,2,1.31,3,.78-.84,1.88-1.56,2.28-2.56a35.84,35.84,0,0,0,1-4.69c1.82-7,4-13.93,7.44-20.26l16.64,4.73c-3.2,4.76-6.29,9.27-9.27,13.85-.84,1.29-2.19,3-.19,4.16,1.83,1.08,2.52-.84,3.35-2.06,3-4.46,6-8.93,9.11-13.32a3.68,3.68,0,0,1,2.36-1.63c3,0,6,.43,8.49.65-2.19,3.79-4.51,7.56-6.54,11.47-.39.77.29,2.1.48,3.18.94-.54,2.23-.84,2.77-1.64,2-3,3.77-6.08,5.62-9.14l2.28-3.81,4,.55c-.61,1.13-1.09,1.93-1.49,2.76-2.39,5-4.83,10-7.09,15.13a26.8,26.8,0,0,0-1.83,6.22c-.13.74.81,1.67,1.26,2.51.76-.52,2-.9,2.22-1.6a33.72,33.72,0,0,1,5.22-10.14c3.63-5,8.26-8.38,12.85-12.11,4-3.25,8-3.06,12.11-.73,2.92,1.66,5.6,3.74,8.9,6-2.17.44-3,2.13-5.16,1.09-1.09-.52-3.7.46-4.65,1.58a98.23,98.23,0,0,0-7.2,10.14c-1.12,1.72-1.77,3.65-.29,4.8a81.51,81.51,0,0,0-4,10.86c-.25.89.82,2.14,1.28,3.23a12.83,12.83,0,0,0,2.33-2.52c1.74-3.38,3.3-6.85,4.93-10.29l.76.33a4.34,4.34,0,0,0,.06,1.66,17.36,17.36,0,0,0,1.55,2.32,12.51,12.51,0,0,0,2.08-2.17c.35-.58.16-1.48.29-2.22.9-5,1.77-10.11,6.36-13.39.59-.42,1.68-.91,2.07-.65a3.27,3.27,0,0,1,1.11,2.17,9.17,9.17,0,0,1-.46,2.46c-1.06,5.92-2.36,11.81-3,17.77-.42,3.63.82,4.33,4.08,2.86a4.18,4.18,0,0,0,2-2.61,44,44,0,0,0,.59-6.19c.34-5.13.65-10.27,1-15.73a38.09,38.09,0,0,1,2.87,3.18,3.09,3.09,0,0,1,.4,1.89c-.17,3-.43,5.92-.65,8.88a44,44,0,0,1-.39,5.52c-1.15,5.82-2.5,11.6-3.68,17.42a5.65,5.65,0,0,0,.16,3c.28.73,1.21,1.2,1.85,1.79a8.3,8.3,0,0,0,1.67-2c.56-1.37.69-2.92,1.25-4.29,2.82-6.89,5.71-13.74,8.6-20.6,0-.1.29-.12.65-.26l3.1,5c1.84,1.94,1.62,5-.56,7.85Zm-144,25.47c0,.29.07.57.1.86-4.29,2.34-8.63,4.63-12.86,7.1-.67.39-.86,1.61-1.28,2.44.89.26,1.89.91,2.63.68a29.57,29.57,0,0,0,4.87-2.22c6.09-3.14,12.16-6.32,18.24-9.48a126.74,126.74,0,0,1-13,8.64c-2.49,1.52-5.06,2.95-7.41,4.67-.77.56-.94,1.92-1.39,2.92a30.76,30.76,0,0,0,3.31.27c.4,0,.8-.45,1.2-.7l19.43-11.93.65.65q-5.73,6.54-11.45,13.09a10.16,10.16,0,0,0-1.8,2.42,24.17,24.17,0,0,1-9.68,11.23c-.8.48-1.24,1.53-1.85,2.32.92.47,2.08,1.54,2.71,1.29a14.68,14.68,0,0,0,4.92-3c2.63-2.68,4.94-5.68,7.38-8.54,2.11,1.67,2.26,1.54,4.22-.06,3.41-2.81,7-5.47,10.48-8.14a7.53,7.53,0,0,1,1.79-.72l.45.72c-.65.59-1.27,1.21-1.94,1.76-2.34,1.91-4.8,3.68-7,5.75-.75.71-.8,2.15-1.18,3.26,1.16-.1,2.53.16,3.43-.38a49.1,49.1,0,0,0,5.1-4l.46.51a17.53,17.53,0,0,1-1.17,1.39c-5.71,5.63-9.88,12.35-13.88,19.21a27.48,27.48,0,0,0-3.72,18.77c.89,5.48,2,10.95,3.26,16.35.57,2.4-.29,3.51-2.29,4.33-3.67,1.5-7.29,3.12-11,4.56-10.08,4-19.26,1.91-27.07-5.15-6-5.38-11.12-14.85-4.47-24.28a16.61,16.61,0,0,0,1.33-2.5c2-4.25,4.35-8.38,4.21-13.35a3.84,3.84,0,0,1,1.53-2.51c2.56-2.06,5.32-3.87,7.85-6,.68-.56.8-1.78,1.18-2.7a15.82,15.82,0,0,0-3-.39,3.92,3.92,0,0,0-1.72.94c-2.21,1.57-4.41,3.16-6.78,4.86-2.53-6.65-3.46-13.3-1.18-20,2-5.84,6-9.64,12.37-10.73,3.53-.61,7-1.42,10.54-2C1381.91,208.24,1386.4,207.55,1390.89,206.82Zm104.7,26.54-.57.59c-1.13-.92-2.23-1.86-3.39-2.74-1.31-1-2.62-3.37-4.37-1.2-1.51,1.87.91,2.83,1.9,4.06.58.74,1.56,1.51,1.59,2.29.09,2.74,1.44,3.81,3.73,2.24,1.89-1.3,3-.7,4.37.54q3.59,3.2,7.34,6.21c1.12.91,2.55,2.36,3.78.57.39-.57-.54-2.53-1.36-3.35-2.14-2.11-4.71-3.79-6.8-5.94-1.35-1.41-2.16-3.35-3.21-5l.86-.59c1.31,1.45,2.55,3,4,4.32a2.63,2.63,0,0,0,2.22.43c.45-.16.64-1.19.85-1.87s0-1.6.33-1.79c2.23-1.26,1.49-2.43.07-3.7-2-1.83-4-3.73-6.09-5.48a47,47,0,0,0-4-2.75l3.9-5c2.13,3,4.62,5.64,6.12,8.78,3.66,7.64,7,15.44,10.19,23.29a49.18,49.18,0,0,0,8.12,13.47c4.07,4.82,7.95,9.81,11.66,14.9,1.67,2.3,2.75,5,4.32,8-2.11.61-3.66,1.53-5.1,1.38a111.3,111.3,0,0,1-13-2.13c-3.49-.8-5.71-3.33-7.47-6.45-2.77-4.88-4.95-10.18-9.58-13.85-3.76-3-7.36-6.18-11-9.33A23.36,23.36,0,0,1,1493,251c.91-1.63,2-2.72,2-3.81,0-2.8-1.89-4.36-4.43-5.13.32-1.74-3.3-9.55-4.82-10.28a2.1,2.1,0,0,0-1.81-.07c-.47.39-1,1.46-.75,1.85,1.52,2.75,3.22,5.39,4.84,8.07.31.51.52,1.08.78,1.62l-.88.47-7.72-9.78,8.25-7.07Zm-52.1-36.4,1-.76,6.32,8.4-4.83,3.15c.9,1,1.87,2.79,2.68,2.73,1.22-.1,2.33-1.52,3.61-2.48a6.34,6.34,0,0,1,1.06,1.08c.7,1,1.28,2,1.71,2.71-5.72,10-5.88,20.33-3.48,31.51l-4.46-2.71c3.06-1,2.52-2.53,1.35-4.24a6.55,6.55,0,0,1-1.12-2.26c-1.46-7.47-2.93-15-4.19-22.46-.21-1.29.67-2.74.78-4.13.07-.9-.09-2.46-.59-2.67-3.87-1.67-5.32-5.18-6.42-8.64-1.29-4.06-1.86-8.34-2.74-12.53l.6-.16c1.79,2.65,3.57,5.3,5.53,8.23-2.92,1-2.2,3-1.18,4.78a62.2,62.2,0,0,0,4.84,7.25c.46.59,1.77.52,2.68.74,0-1,.45-2.19.05-3A37,37,0,0,0,1443.49,197Zm16.07-60.76a11.38,11.38,0,0,1-2.09-1.22c-2.32-2.34-4.73-4.62-6.85-7.13-8.24-9.77-10.68-10.4-23-6.58a16.36,16.36,0,0,1-8,.22c-3.74-.81-7.27-2.59-11-3.67-4.41-1.29-8.92-2.24-13.36-3.42a20.4,20.4,0,0,1-3.18-1.58c4.15-1.62,7.5-2.76,10.52.57a2.21,2.21,0,0,0,1.48.76,32.09,32.09,0,0,0,3.65-.41c-.22-1.06-.44-2.12-.68-3.25.25.08,1.12.07,1.32.44,2.38,4.28,6.71,5.41,10.89,6.7.7.22,1.65-.39,2.49-.62a8.74,8.74,0,0,0-.74-2.45,7.14,7.14,0,0,0-1.87-1.49,14,14,0,0,1,4.71.48c4,1,8,2.36,12.08,3C1447.63,118.33,1454,126.22,1459.56,136.2Zm-135.69,12.07c-1.72-1.44-3.54-2.92-5.32-4.45-1.93-1.66-1.66-3.57-.15-5.21s2.38-4.69,5.74-3.3c1.53.63,2.26-.14,2.61-1.61.17-.74.38-1.73.91-2.09,3.18-2.11,6.45-4.07,9.06-5.69l3.3,2.14c.51-1.11,1.59-2.31,1.42-3.3-.56-3.32,1.82-4.07,3.84-5.38,1.34,2.54,2.6,4.9,3.9,7.35C1336.89,129.39,1330.25,138.27,1323.87,148.27Zm130,95.84c.94-.51,1.66-1.14,1.92-1,2.43,1.41,3.93-.37,5-1.79a29.8,29.8,0,0,0,4.3-7.21c1.91-4.8,3.4-9.76,5.06-14.66l4.35-.06a37.9,37.9,0,0,1-2,5c-1.88,3.26-3.9,6.43-6,9.57-.82,1.27-1.79,2.64-.14,3.57.65.36,2.62-.45,3.15-1.27,2.65-4.09,5-8.36,7.5-12.57.42-.71.66-1.71,1.27-2.07,3.12-1.86,5.75-1.29,8.59,1.61a72,72,0,0,0-6.71,5.43c-2,2.06-3.47,4.7-5.45,6.82a64.69,64.69,0,0,1-8.33,7.9C1462.75,246.12,1458.52,245.79,1453.82,244.11Zm-25.07-118.63c9-4.2,11.87-3.49,18.27,4.22a76.37,76.37,0,0,0,8.22,8.55,7.25,7.25,0,0,0,5.07,1.67c2.35-.31,3.17.65,4.09,2.65C1450.11,141.51,1438.26,136,1428.75,125.48Zm29,88.72,8.55,2.18c1.36,3.77-6.54,21.85-11.27,24.32A40.8,40.8,0,0,1,1457.72,214.2ZM1353.56,113.09c2.86,3.19,5.69,6.4,8.62,9.52.48.52,1.66,1.08,2,.85.64-.38,1.4-1.61,1.2-2.12a13.7,13.7,0,0,0-2.44-4c-1.54-1.77-3.32-3.35-5.43-5.43l2.93-.16a37.53,37.53,0,0,0,11.61,10.69,2.1,2.1,0,0,0,1.85-.61,3.3,3.3,0,0,0-.45-2.47,39.42,39.42,0,0,0-3.85-3.43l.44-.52,8.57,5.79a46.57,46.57,0,0,1-26.44,5.06,56.55,56.55,0,0,0-2.38-6c-1.71-3.21-1.71-3.6,1.34-5.62C1351.79,114.16,1352.43,113.79,1353.56,113.09Zm91.28,125-.74.63-10.53-10.55c2.3-.67,3.71-1.45,2.51-3.5-2.68-4.57-2.6-9.5-2-14.5.31-2.4.77-4.78,1.25-7.71,1.28,2.13,3.41,4.09,3.55,6.18C1439.58,218.74,1441,228.62,1444.84,238.08Zm-43.06-94c-.56,1.16-1.08,2.12-1.51,3.12-1.82,4.32-4,8.54-5.26,13-.81,3-2.74,3.19-4.71,3s-3.54-1.14-4.79,1.21c-.24.45-1.62.3-2.51.43C1382.9,159.84,1395.94,145.5,1401.78,144.1Zm28.36,77.48c-2.7-4.64-5.08-10.15-4.59-16.75l4.67,1.45C1430.19,211.81,1430.16,217,1430.14,221.58Zm55.29-4.41,4.87-6.63a11.92,11.92,0,0,1,1.39.19c1,.24,2,.48,3,.81,2.16.75,2.69,2.06,1.15,3.74a6.83,6.83,0,0,1-3.81,1.9c-1.86.27-4-1.42-5.67.69ZM1375.17,114.05c3.8-.11,7.26-.32,10.72-.25,1.06,0,2.11.79,3.06,1.17-4.67,5.19-8.79,3.54-12.79-.11C1375.89,114.61,1375.59,114.39,1375.17,114.05Zm99.4,101.42a14.26,14.26,0,0,0,2.1-2.53c2.23-4.28,3-4.67,8.94-2.7-.8,2.87-3.11,3.82-5.63,4.39C1478.21,215,1476.38,215.2,1474.57,215.47Zm-19.21-11.31,10.06,3.86-2,1.95c-1.15-.54-2.14-1.42-3.11-1.39C1456.73,208.69,1456.4,208.56,1455.36,204.16Zm18.69,5.26c-1.56,4.16-5.41,5.22-8.55,3.51C1468.09,211,1470.15,208.12,1474.05,209.42Zm-52.66,1.6c2.23,4.23,2.12,5.4-.21,6-1.46.36-3,.53-5,.86Zm70.35,12.88c1.39-.07,2.53-.41,3.47-.1a3.39,3.39,0,0,1,2,2c.25,1-.24,2.11-.49,3.64C1495.47,227,1491.83,227,1491.74,223.9ZM1427.56,225c.49,1,1,1.91,1.41,2.78l-2.75,3-3.33-.84Zm99-46.3-.76.22-.72-9.32C1529.15,172.33,1527.17,175.57,1526.58,178.69Zm15.11,28.49-.76-.17,2.61-12,1.52.32C1544.06,199.27,1543,203.24,1541.69,207.18Zm-112.54,31.09-.93-.71c.77-2.22,1.55-4.43,2.51-7.17l2.14,2.62Zm-26.48-16.39-.47-.68,11.73-8.32.68,1Zm29.17-21.5c-3,.22-5.09-2.41-5.35-5.71Zm51.61-47.31c1.76-5,1.76-5,5.78-4.34Zm70.3,79c.46-2.24.91-4.47,1.45-7.06C1557.24,228.13,1555.6,230.17,1553.75,232.08ZM1481.68,243l-.67.54-3.88-4.59.93-.75Z"/><path class="cls-2" d="M1487.2,163.78c-2.72-1.82-3.85-.4-4.59,2-1.21,3.87-2.62,7.68-3.66,11.59-.25,1,.63,2.2,1,3.31a14.69,14.69,0,0,0,2.51-2.47,12.76,12.76,0,0,0,1-3.22c.4-1.41.52-3,2.73-2.76.43,0,1.06-.71,1.43-1.22a57.83,57.83,0,0,1,16.67-15.45c.66-.4.81-1.65,1.2-2.5l-4.43-1.22c-1.31-1.61-2-1.58-4.09.81C1493.78,156.33,1490.53,160,1487.2,163.78Z"/><path class="cls-2" d="M1449.94,145.41c-1.13-1.92-2.46-1.69-3.52-.43a81.18,81.18,0,0,0-5.05,6.75,39.78,39.78,0,0,0-3.52,6.09c-.33.75.3,1.93.5,2.92.87-.35,2.1-.44,2.55-1.08,2.94-4.11,5.73-8.34,8.52-12.56A5.77,5.77,0,0,0,1449.94,145.41Z"/><path class="cls-2" d="M1424.75,142.88c-1,.16-2.74,0-3.06.54-2.53,4.5-4.87,9.11-7,13.79-.26.56.86,1.76,1.34,2.66.74-.58,1.78-1,2.18-1.77,2.07-3.9,3.93-7.92,6-11.83a9.64,9.64,0,0,1,2-2Z"/><path class="cls-2" d="M1523.69,243c3.29-1.23,7.12-8.54,6.23-11.38a2.4,2.4,0,0,0-1.66-1.47,2.24,2.24,0,0,0-1.75,1.36,14.94,14.94,0,0,1-4.61,8.77,2.24,2.24,0,0,0,0,2.2C1522.32,243,1523.37,243,1523.69,243Z"/><path class="cls-2" d="M1533.48,243.44c-.25-.12-1-.81-1.43-.68a2.94,2.94,0,0,0-1.73,1.51c-1.1,2.65-2.07,5.35-3,8.07-.2.61-.13,1.74.24,2a2.73,2.73,0,0,0,2.27.19C1532.1,253.56,1534.66,246.2,1533.48,243.44Z"/><path class="cls-2" d="M1516.29,210.58c-1.17-1.64-3-1.9-3.62-.44a38.31,38.31,0,0,0-2.47,7.69c-.32,1.54,1.93,2.74,2.52,1.62A83.77,83.77,0,0,0,1516.29,210.58Z"/><path class="cls-2" d="M1480.26,192.91c-.93-.55-1.59-1.26-2.12-1.17a2.57,2.57,0,0,0-1.77,1.37,21.76,21.76,0,0,0-1.27,5.46c-.06.87.87,1.8,1.35,2.7.73-.57,1.85-1,2.11-1.73A68.12,68.12,0,0,0,1480.26,192.91Z"/><path class="cls-2" d="M1525.21,225.79c-.28-.17-.82-.71-1.36-.73a2.08,2.08,0,0,0-1.6.81,49.22,49.22,0,0,0-2.44,5.64,2,2,0,0,0,.56,1.74,2.19,2.19,0,0,0,1.8.22C1524,232.83,1526.11,227.84,1525.21,225.79Z"/><path class="cls-2" d="M1396.48,325.28c2.85.81,3.4.47,3.51-2a58.57,58.57,0,0,1,7.51-26.62c.37-.66,1-1.29,1.07-2s-.11-2-.64-2.41a2.63,2.63,0,0,0-2.36.54,12.26,12.26,0,0,0-2,3c-4.4,8-6.45,16.63-7.37,25.59a19.08,19.08,0,0,0,.4,3.88Z"/><path class="cls-2" d="M1471.89,308.24c-1.41-1.69-1-5.14-3.86-3.94-2.49,1.06-.08,3.24.14,4.93.74,5.68,1.62,11.34,2.12,17,.31,3.44-.08,7,.08,10.42,0,.86,1,1.68,1.54,2.52.69-.64,1.38-1.27,2-1.93.1-.11.08-.36.09-.55A100.74,100.74,0,0,0,1471.89,308.24Z"/><path class="cls-2" d="M1426.78,304.38c-.81-.44-1.48-1.11-1.86-1a4,4,0,0,0-2.09,1.59c-1.74,3.76-3.48,7.54-4.88,11.44a44,44,0,0,0-2.1,8.79c-.13.94,1,2.06,1.6,3.1a10.64,10.64,0,0,0,2-2.57c2.17-6,4.19-12.07,6.26-18.12C1426.06,306.62,1426.39,305.58,1426.78,304.38Z"/><path class="cls-2" d="M1449.41,312.91c-.76-.38-1.46-1-2-.91-.67.17-1.67.93-1.69,1.47-.15,3.47-.14,6.95,0,10.41a2.3,2.3,0,0,0,1.63,1.52c.57,0,1.71-.82,1.74-1.33C1449.35,320.43,1449.34,316.78,1449.41,312.91Z"/><path class="cls-2" d="M1406.91,194.78a14.69,14.69,0,0,0-1.47-1.13c-8.2-4.86-16.36-9.79-24.65-14.49a26.08,26.08,0,0,0-6.88-2.32c-.54-.14-1.8.82-2,1.46s.7,1.66,1.37,2c5.37,2.88,10.86,5.55,16.22,8.47,4.64,2.52,9.11,5.36,13.75,7.88.78.43,2.09.1,3.08-.16C1406.68,196.43,1406.74,195.4,1406.91,194.78Z"/><path class="cls-2" d="M1354.76,154.38c.16,1-.06,2.5.54,3q10.21,8.19,20.7,16.06c.67.51,2,.17,3,.22-.26-1.06-.15-2.55-.82-3.1-6.16-5.08-12.45-10-18.71-15-1.1-.87-2.24-1.69-3.35-2.53Z"/><path class="cls-2" d="M1382.07,172.43c.22,1,.09,2.46.71,2.94,6.18,4.73,12.48,9.3,18.76,13.9a3.13,3.13,0,0,0,1.47.77c.67,0,1.74-.11,2-.52a2.52,2.52,0,0,0-.13-2.24,13.51,13.51,0,0,0-2.57-2.15c-4.49-3.57-8.91-7.23-13.51-10.65-1.64-1.23-3.72-1.88-5.6-2.79Z"/><path class="cls-2" d="M1370.5,184.54c-.4.75-1,1.39-1,2a2.5,2.5,0,0,0,1.17,1.67c6,3.4,11.94,6.73,17.93,10.08a7.63,7.63,0,0,0,2.5,1.22,6.38,6.38,0,0,0,2.44-.76c-.28-.81-.31-2-.87-2.37-6.28-3.8-12.62-7.49-19-11.13A11.83,11.83,0,0,0,1370.5,184.54Z"/><path class="cls-2" d="M1416.59,188.83a22.21,22.21,0,0,0-1.78-1.76q-7.57-5.87-15.18-11.69a7.7,7.7,0,0,0-1.19-.75c-1.44-.71-3.18-1.74-4.2.17s1.08,2.28,2.24,3.13c5.29,3.9,10.5,7.91,15.74,11.88a6.57,6.57,0,0,0,1.82,1.28,2.51,2.51,0,0,0,2-.32C1416.49,190.38,1416.44,189.47,1416.59,188.83Z"/><path class="cls-2" d="M1366.47,138.6c-.54.87-1.16,1.41-1.12,1.89a2.78,2.78,0,0,0,1,1.86c4.89,3.49,9.8,7,14.82,10.24.79.52,2.17.12,3.27.15-.33-1-.35-2.46-1.05-3-4.24-3.27-8.6-6.37-13-9.43A23.31,23.31,0,0,0,1366.47,138.6Z"/><path class="cls-2" d="M1370.1,265.35c-1.06-2.13-2.7-1.89-4.24-.86-4.38,2.93-8.73,5.91-13,9-.56.41-.44,1.74-.64,2.65,1,.06,2.32.55,3,.1,3.42-2.15,6.68-4.56,10-6.88a2.38,2.38,0,0,1,1.74-.57l-8.82,9.37c-.52.55-1.26,1-1.45,1.69a2.89,2.89,0,0,0,.32,2.26c.28.37,1.42.4,2,.16a6.5,6.5,0,0,0,1.93-1.6c5.86-6,11.73-12,17.47-18.06.62-.66.44-2.07.63-3.14-1,.13-2.29-.09-3,.45C1374,261.54,1372.18,263.43,1370.1,265.35Z"/><path class="cls-2" d="M1364.23,287.64a6.57,6.57,0,0,0,.9-.67c3.4-3.52,6.91-6.94,10.12-10.63a12.59,12.59,0,0,0,2.07-4.87,1.71,1.71,0,0,0-3.2-1.06c-2.18,5.87-7.27,9.26-11.24,13.62A4.17,4.17,0,0,0,1362,287c.06.66,1.06,1.22,1.64,1.83Z"/><path class="cls-2" d="M1360.58,264.1a61.9,61.9,0,0,0,5.74-4c.59-.5.54-1.73.78-2.63-.91-.12-2-.57-2.72-.27-1.28.5-2.28,1.78-3.57,2.19a32.85,32.85,0,0,1-5,.71,24.4,24.4,0,0,0-2.64.69c.39,1,.63,2.63,1.19,2.75A42.59,42.59,0,0,0,1360.58,264.1Z"/><path class="cls-2" d="M1371.06,246.77a62.1,62.1,0,0,0-4.49,4.35,2.29,2.29,0,0,0,.06,2.24,2.21,2.21,0,0,0,2.18.26,31.8,31.8,0,0,0,4.65-4,2.26,2.26,0,0,0,0-2.21C1373.08,246.91,1372,247,1371.06,246.77Z"/><path class="cls-2" d="M1535,278.24c-3.8-4.79-7.14-9.2-10.7-13.44a113.74,113.74,0,0,0-8.08-8.64c-.73-.71-2.21-.63-3.35-.92.22,1.16,0,2.65.7,3.43,4.17,5,8.64,9.68,12.77,14.67,1.81,2.19,2.93,4.93,4.61,7.24.5.69,1.8.79,2.74,1.16C1534.08,280.61,1534.5,279.47,1535,278.24Z"/><path class="cls-2" d="M1508.48,252.43c-.55-.55-.85-.9-1.2-1.2-2.71-2.33-5.35-4.73-8.18-6.89-.75-.57-2.08-.36-3.15-.5.21,1.07,0,2.53.7,3.16a101.09,101.09,0,0,0,8.36,7.1,3.73,3.73,0,0,0,2.79.14C1508.17,254.14,1508.27,253,1508.48,252.43Z"/></g></svg>