<svg id="Layer_1" data-name="Layer 1" xmlns="http://www.w3.org/2000/svg" viewBox="0 0 1701 582"><defs><style>.cls-1{font-size:104.21px;stroke:#a86763;stroke-miterlimit:10;font-family:Ubuntu-Light, Ubuntu;font-weight:300;letter-spacing:0.01em;}.cls-1,.cls-12,.cls-13,.cls-14,.cls-4{fill:#cd5e79;}.cls-2{letter-spacing:0em;}.cls-3{letter-spacing:0.01em;}.cls-4{font-size:189.79px;letter-spacing:0.01em;}.cls-13,.cls-14,.cls-4{font-family:PlayfairDisplay-Bold, Playfair Display;font-weight:700;}.cls-5{letter-spacing:0.01em;}.cls-6{letter-spacing:-0.03em;}.cls-7{letter-spacing:-0.06em;}.cls-8{letter-spacing:0em;}.cls-9{letter-spacing:0.01em;}.cls-10{letter-spacing:0em;}.cls-11{letter-spacing:0.01em;}.cls-13,.cls-14{font-size:293.34px;}.cls-13{letter-spacing:0.01em;}.cls-14{letter-spacing:-0.02em;}</style></defs><title>logohorizontal</title><text class="cls-1" transform="translate(448.44 471.47)">MAK<tspan class="cls-2" x="222.79" y="0">E</tspan><tspan class="cls-3" x="280.63" y="0">UP ARTIST &amp; HAIR </tspan></text><text class="cls-4" transform="translate(448.15 312.24)">Laur<tspan class="cls-5" x="426.25" y="0">a</tspan><tspan class="cls-6" x="525.7" y="0"> </tspan><tspan class="cls-7" x="564.8" y="0">V</tspan><tspan x="680" y="0">a</tspan><tspan class="cls-8" x="780.4" y="0">l</tspan><tspan class="cls-9" x="839.61" y="0">e</tspan><tspan class="cls-10" x="936.21" y="0">r</tspan><tspan class="cls-11" x="1024.27" y="0">o</tspan></text><path class="cls-12" d="M286.22,245.17a33.36,33.36,0,0,0,5.91.3c5.09-.64,9-4.7,10.25-10.48.46-2.15.6-4.37.86-6.56a7.59,7.59,0,0,1,2.33-4.72,32.84,32.84,0,0,1,3.34-3.13c6.32-4.66,5.26-11.82,2.72-16.48-3.18-5.86-8.2-9-15.07-8.87a46.71,46.71,0,0,1-5.77-.13c.95-.35,1.88-.74,2.85-1,3.51-1,5.49-3.14,5.7-7,.2-3.7.14-7.32-1.68-10.59a12.79,12.79,0,0,0-3.35-3.65,18.06,18.06,0,0,0-4.43-2.39,17.24,17.24,0,0,0-3.81-.73,4.87,4.87,0,0,0-1.42.08c-7,.92-11.65-2.48-14.9-8.34-1.07-1.94-2.08-3.92-3.32-5.74-2.15-3.18-4.7-6-8.59-7.07a6.17,6.17,0,0,0-7.2,2.59,21.45,21.45,0,0,0-1.94,3.43c-4,9-8,18.08-12,27.12a49.32,49.32,0,0,0-4.25,14l-1.58-2.67c-2.51-4.11-4.63-8.35-4.89-13.32a8.17,8.17,0,0,0-3.29-6.08c-2.91-2.32-5.85-4.56-9.89-4.27-.23,0-.6,0-.7-.2-.89-1.45-2.05-.91-3-.27a15.12,15.12,0,0,0-3.86,3.16c-2.77,3.77-5.3,7.72-7.93,11.6a48.78,48.78,0,0,0-2.89,4.29,28.94,28.94,0,0,0-2.61,6c-2.82,10.56-2.14,21,.9,31.46,2.12,7.25,4.4,14.39,8.37,20.89a15.64,15.64,0,0,0,8.13,6.89c4.62,1.73,9.15,3.71,14,5.67a1.59,1.59,0,0,0-.65,2.41,10.89,10.89,0,0,1,.91,3.32A26.17,26.17,0,0,0,228,276.45a15.85,15.85,0,0,0,3.58,3.5c4,2.76,8.11,5.31,12.1,8.05a25.42,25.42,0,0,0,12.3,4.08,12.12,12.12,0,0,1,2.72.92c.19.07.41.26.57.22,2.84-.67,4.86,1.18,7.09,2.34,1.49.77,2.91,1.71,4.43,2.42a12,12,0,0,0,9.36.7c1.68-.59,3.38-1.19,5.11-1.63,3.75-1,7.53-1.81,11.29-2.7.67-.16,1.36-.23,2-.45,6.43-2.23,6.22-5.18,3.55-9.29a9.72,9.72,0,0,0-.81-1.17c-3.54-4-4.59-8.65-4.37-14a26.89,26.89,0,0,0-6.42-19C289.08,248.72,287.71,247,286.22,245.17Zm-29.68-2.86a1.93,1.93,0,0,0,.78-2.59,7.64,7.64,0,0,1-.57-2.28,2.47,2.47,0,0,1,.56-1.27c1.84.62,2-1,2.59-1.94l1.37.18,1.23,2.37c-.24.57-.53,1.3-.82,2l2.42.74c-.22.47-5.44,2.46-7.61,2.73a27.65,27.65,0,0,0-2.77,1.69c-.37.29-.47.93-.7,1.41.55.17,1.14.57,1.62.46a12.91,12.91,0,0,0,2.45-1.07c4.83-2.25,9.84-3.51,15.18-2.57,2.37.42,4.68,1.21,7.06,1.67a8.76,8.76,0,0,1,5.23,2.86c1.51,1.76,3,3.55,4.44,5.35,4.5,5.57,6.09,12.05,5.77,19.05-.17,3.73.11,7.26,2.46,10.36a6.43,6.43,0,0,1,.54,1c-7,6.84-14.78,8.1-23.21,3.23.72-.57.46-1.23-.17-2a30.1,30.1,0,0,1-2.27-3.22c-1.44-2.39-2.81-4.82-4.23-7.22-.45-.75-.9-1.86-2-1.18s-.24,1.49.17,2.19c2.26,3.83,4.53,7.65,6.77,11.42-.25,0-.72,0-1.18,0a77.15,77.15,0,0,0-9.4.58c-3.7.66-6.83.19-9.67-2.37a88.51,88.51,0,0,0-7.48-6.07c-2.8-2-4-5.09-6-8,2.49.8,4.69,1.47,6.86,2.23a2.18,2.18,0,0,1,1,1c1.22,2.15,2.34,4.37,3.62,6.47.25.41,1.09.46,1.66.67a7,7,0,0,0,.11-1.7,4.69,4.69,0,0,0-.69-1.22l-2.48-4.5,4.68.66-.4.38q2.71,3.73,5.44,7.46a.6.6,0,0,0,.38.26c.44,0,1.12.1,1.25-.12a2.11,2.11,0,0,0,0-1.39c-.06-.27-.43-.45-.61-.71-1.3-1.79-2.58-3.59-3.76-5.24,2.55-.49,5-.56,7.13-1.46a64.86,64.86,0,0,0,8.51-4.78,3.82,3.82,0,0,0,2-4.17c-.42-1.73-2.08-1.84-3.56-2.05a3.24,3.24,0,0,1-1.86-.63,40.33,40.33,0,0,1-3.64-4.49c-2.21-3.21-4.26-6.53-6.47-9.74-.32-.47-1.15-.59-1.74-.87-.09.51-.44,1.18-.23,1.51q3.5,5.53,7.17,11a20.89,20.89,0,0,0,2,2.16l-.56.45c-1.17-1.51-2.42-3-3.47-4.54-1.89-2.86-3.62-5.81-5.51-8.67-.29-.43-1.05-.55-1.59-.82a5.74,5.74,0,0,0-.16,1.82,5.88,5.88,0,0,0,.94,1.63l4,6.47-.46.34c-3.11-3.81-6.21-7.62-9.36-11.47,2.07-.42,2.73-1.64,2.31-3.93-.11-.6-.11-1.23-.19-2.14.55.74,1,1.55,1.13,1.5C254.08,240.86,255.08,242.49,256.54,242.31Zm39.08-64.62a10.16,10.16,0,0,1,1.17,2.68,55.36,55.36,0,0,1,.37,6.44c0,2.71-1.39,4.38-4.05,5.1a9.08,9.08,0,0,0-3.75,1.56c-1.82,1.67-5.17,2.65-3.67,6.32.09.22,0,.52-.07.78-.16,1.26-.4,2.5-.48,3.76-.54,9.19-7.13,13.51-13.94,17.68l-1.07-2.25c2.61-2.73,5.22-5.38,7.7-8.15a2.08,2.08,0,0,0,.14-2c-.81-.75-1.36.13-1.82.79a9,9,0,0,1-.93,1.27c-1.82,1.83-3.68,3.64-5.75,5.68-.54-2.06-1.58-2.25-3.21-1.54,2.94-3.71,5-7.58,8.15-10.67a31.07,31.07,0,0,0,7.51-10.84c.19-.5-.23-1.24-.36-1.88-.51.35-1.27.57-1.5,1-3.13,6.51-7.94,11.62-13.43,16.15-1,.82-1.39,1.53-.29,2.56l-2,2.63-1.66-.94a20.57,20.57,0,0,0,2.29-3.15c2.17-4.54,4-9.25,7.4-13.11a1.29,1.29,0,0,0,.39-.67c0-.65,0-1.31,0-2a5.58,5.58,0,0,0-1.72.88c-1.42,1.6-2.78,3.26-4.06,5-.65.87-1.5,1.9-1.52,2.87-.06,3-2,4.59-4.18,6.39.32-1.08.92-2,.74-2.73-.32-1.35.4-2.19.91-3.19,1.19-2.34,2.42-4.67,3.48-7.07.21-.48-.27-1.26-.43-1.9-.51.39-1.2.69-1.49,1.21-.71,1.27-1.22,2.65-1.82,4l-.58-.12a4,4,0,0,1,.19-1.33c2.08-3.73,4.21-7.42,6.32-11.13a7,7,0,0,0,.86-1.84,1.43,1.43,0,0,0-.55-1.14c-.21-.15-.82,0-1.09.26a3.84,3.84,0,0,0-.81,1.16l-9.38,16.83c-.21.37-.44.72-.88,1.41a13.75,13.75,0,0,1-.23-2.58,28.1,28.1,0,0,1,3.07-9,13.83,13.83,0,0,0,1.13-2.6,5.09,5.09,0,0,0-.27-1.8c-.55.34-1.13.64-1.64,1-.19.13-.23.46-.34.7-.84,1.87-1.66,3.75-2.54,5.61-.4.81-1.22,1.53-1.34,2.36-.32,2.3-.21,2.31-2.66,2.66.2-.53.39-1,.56-1.49,1.18-3.43,2.4-6.85,3.53-10.3a11.62,11.62,0,0,0,.51-2.93,1.21,1.21,0,0,0-.75-.95c-.34-.05-.82.32-1.09.63s-.2.7-.31,1.05c-1.54,4.53-3.07,9.06-4.63,13.58a8.92,8.92,0,0,1-.79,1.39c-.54-.91-1-1.59-1.24-2.05,1.23-4.08,2.46-8,3.57-11.95a14.81,14.81,0,0,0,.44-3.58c0-.39-.5-.79-.77-1.18-.39.34-.91.62-1.14,1a6.89,6.89,0,0,0-.29,1.54c-1,3.91-2.08,7.8-3,11.29l-2.56,0c.15.59.29,1.17.43,1.75l.5,2.1c-1.17-.86-1.22-2.8-3.33-1.75a18.32,18.32,0,0,1,.36-3.19c1.35-4.38,2.8-8.72,4.18-13.09a16.68,16.68,0,0,0,.33-2,13.13,13.13,0,0,1,.43-2.09c.14-.44.63-.77.74-1.2a6,6,0,0,0,0-1.58,9.8,9.8,0,0,0-1.64.39c-.25.11-.4.48-.57.74q-4.29,6.54-8.57,13.09c-.18.26-.45.55-.45.82a8.2,8.2,0,0,0,.31,1.52A4.91,4.91,0,0,0,238,192c.32-.21.48-.68.71-1l4.47-6.82.24.11-3.31,10c-.91-.45-1.71-1.2-2.46.11-1.15,2-1.05,2.42,1.19,4l-.58,2.17-2.53.6a19.59,19.59,0,0,1-.85-2.95c-.6-5.26,1.43-10,3.43-14.59,3-7,6.26-13.8,9.38-20.71,1.43-3.16,2.58-6.46,4.21-9.51,1.76-3.3,4.57-3.71,7.7-1.65,4.21,2.76,6.33,7.06,8.47,11.16a14,14,0,0,0-1.74,2.27q-2.74,5.87-5.29,11.81c-.22.52-.06,1.67.3,1.88.93.53,1.32-.33,1.65-1.11,1.32-3.1,2.62-6.2,4-9.27.59-1.32,1.36-2.56,2.1-3.91,1,1.18,1.93,2.12,2.68,3.2a2.24,2.24,0,0,1,.29,1.74c-.49,1.5-1.26,2.9-1.73,4.4a1.9,1.9,0,0,0,.43,1.73c.86.48,1.23-.31,1.53-1.05.62-1.56,1.3-3.09,2-4.72l2.14,1.2c-1.18,2.17-2.33,4.18-3.31,6.26-.2.41.28,1.13.45,1.7.47-.31,1.11-.53,1.39-1a36.14,36.14,0,0,0,2.39-4.25,3.39,3.39,0,0,1,3.88-2.08c1.57.15,3.17-.1,4.74,0,3.6.19,6.4,2.14,9,4.42.39.34.5,1,.74,1.52ZM195.3,226.22a1.71,1.71,0,0,0,2.59-.84q1.14-2.07,2.29-4.14c.52-1,.84-1.87-1-2.78,1.26-1,2.21-1.87,3.21-2.65,1.16-.91,1.52-1.77-.09-2.56.69-.94,1.33-1.71,1.85-2.56s1.69-1.72.49-2.54-1.65.62-2.22,1.35c-1.68,2.14-3.33,4.32-5,6.49.73-2,1.74-3.76,2.5-5.65.3-.72,0-1.67,0-3l3.48-3.46c.57-.57,1.28-1.26.43-1.95-.31-.25-1.44,0-1.84.43-1.93,1.94-3.78,3.95-5.57,6-1.35,1.57-2.56,3.27-4,5.16-.16-1.74-1-3.27.9-4.2.08,0,.12-.17.19-.25,1.09-1.14,1.46-3.13,3.63-3,.14,0,.35-.24.45-.41,1.25-2.19,2.52-4.38,3.69-6.62.17-.32-.16-.92-.27-1.39-.47.11-1.21.07-1.36.36a23.24,23.24,0,0,1-4.14,5,48.35,48.35,0,0,0-3.39,4.32c.13-2.31.18-2.28,1.78-4.73,1.92-3,3.74-6,5.62-8.95.64-1,.64-1.83-.67-2.28a15.38,15.38,0,0,0,1.54-2.48c.19-.5-.09-1.18-.16-1.78a7.13,7.13,0,0,0-1.54.68c-.35.27-.51.79-.8,1.16-1.06,1.36-2.14,2.7-3.21,4.05l-.47-.34c.71-1.21,1.38-2.44,2.14-3.61s1.57-2.22,2.33-3.35c2.69-4,5.32-8.09,8.08-12.07a22.78,22.78,0,0,1,3-2.9,37.3,37.3,0,0,0,3.05,14.07c2.1,4.76,2.53,9.68,2.53,14.81,0,5.93.2,11.91,3.06,17.33-1.07,1.38-2.17,2.66-3.08,4.07-.25.4.06,1.17.12,1.76.52-.2,1.21-.26,1.55-.64,1-1,1.77-2.2,2.6-3.27l3.87,3a21.39,21.39,0,0,0-1.88,1.61,30.33,30.33,0,0,0-3,3.46c-.25.36.17,1.18.29,1.79a5.82,5.82,0,0,0,1.46-.78c.94-.92,1.75-2,2.65-2.91.75-.78,1.56-1.5,2.28-2.19,2,.83,4.15,1.68,6.25,2.62a22.38,22.38,0,0,1,3.86,2c6.35,4.47,10,10.5,10.55,18.35a2.44,2.44,0,0,0,.85,1.32,25.1,25.1,0,0,1,2.37,1.92c3.05,3.62,6,7.3,9.15,11.16-2.75,2.61-5,6.3-9.18,7.86-.3.11-.68.66-.62.91s.51.89.84.92a3,3,0,0,0,1.8-.35,24.07,24.07,0,0,0,3.54-2.63c1.95-1.82,3.79-3.77,5.72-5.72l3,1.68c-2.57,2.47-4.88,4.91-7.43,7.06a5,5,0,0,1-3.58,1.07c-3.6-.65-7.15-1.64-10.7-2.58a14.66,14.66,0,0,1-2.56-1.25c3.77-1.57,6.07-4.51,8.56-7.21.24-.26,0-1,0-1.52a4.6,4.6,0,0,0-1.42.2c-.4.19-.67.66-1,1-1.56,1.53-3.12,3-4.68,4.56,1.3-2.08,2.84-3.93,4.27-5.86a24.72,24.72,0,0,0,2.34-3.75c.24-.47-.05-1.2-.1-1.82a5.45,5.45,0,0,0-1.69.9,20.09,20.09,0,0,0-1.45,2.25,48.75,48.75,0,0,1-7.82,9.16l-7.79-5.69c2.59-1.88,5.08-3.64,7.53-5.46.69-.51,1.73-1.14.91-2.14s-1.48-.05-2.15.43c-2.45,1.75-4.88,3.51-7.36,5.2a2,2,0,0,1-1.55.4c-1.55-.6-3-1.38-4.31-2,1.88-1.56,3.82-3.09,5.64-4.74.36-.33.26-1.16.37-1.75-.6.09-1.33,0-1.77.31-1.62,1.16-3.15,2.46-4.71,3.7L219,255l-2-1.07c.54-.47.94-.79,1.31-1.15,2.23-2.17,4.48-4.32,6.65-6.55a15,15,0,0,0,2.16-2.9c.21-.36-.1-1-.17-1.56-.5.13-1.23.09-1.48.41a18.75,18.75,0,0,1-4.69,4.3c-2.86,1.89-5.95,2.78-9.07,3.84-2.72.93-4.79.05-6.48-2-1.21-1.44-2.21-3-3.51-4.85,1.22.19,2-.53,2.92.43a3,3,0,0,0,2.74.07,53.65,53.65,0,0,0,5.73-3.91c.92-.68,1.64-1.57,1.08-2.45a45.48,45.48,0,0,0,4.21-4.91c.3-.42,0-1.28,0-1.94a7.63,7.63,0,0,0-1.71.87c-1.57,1.43-3.06,3-4.57,4.43l-.34-.32a2.28,2.28,0,0,0,.29-.88,9.3,9.3,0,0,0-.36-1.52,7.28,7.28,0,0,0-1.51.73c-.3.24-.37.75-.58,1.11-1.45,2.46-2.89,4.95-5.92,5.78-.4.1-1.06.15-1.22-.06a1.83,1.83,0,0,1-.16-1.35,5.54,5.54,0,0,1,.72-1.2c1.7-2.89,3.53-5.73,5-8.71.93-1.82.41-2.43-1.58-2.29a2.31,2.31,0,0,0-1.53,1,23.61,23.61,0,0,0-1.51,3.12c-1.17,2.62-2.33,5.25-3.57,8a22.52,22.52,0,0,1-.88-2.22,1.77,1.77,0,0,1,.15-1.07c.67-1.51,1.38-3,2.06-4.52a24.64,24.64,0,0,1,1.28-2.81c1.73-2.83,3.56-5.59,5.31-8.4a3.3,3.3,0,0,0,.5-1.62c0-.44-.4-.87-.63-1.3a4.62,4.62,0,0,0-1.25.71c-.56.61-.93,1.4-1.49,2-2.81,3.05-5.65,6.08-8.49,9.11,0,0-.18,0-.39,0q-.33-1.59-.66-3.21c-.59-1.37.11-2.91,1.81-4Zm80.33,14.6.11-.47c2.71-.4,5.42-.75,8.11-1.22.43-.08.76-.68,1.14-1-.41-.3-.81-.83-1.24-.86a16.61,16.61,0,0,0-3,.22c-3.8.46-7.59,1-11.39,1.42a72.39,72.39,0,0,1,8.48-2c1.6-.31,3.22-.56,4.78-1,.51-.14.87-.82,1.29-1.26a16.9,16.9,0,0,0-1.67-.78c-.21-.08-.51.08-.77.13L269,236.43l-.21-.46,8.53-4.64a5.88,5.88,0,0,0,1.41-.91,13.39,13.39,0,0,1,7.24-4,5,5,0,0,0,1.42-.86c-.39-.42-.79-1.21-1.17-1.2a8.07,8.07,0,0,0-3.16.64c-1.9.89-3.69,2-5.52,3-.78-1.28-.88-1.24-2.22-.78-2.33.81-4.7,1.51-7.06,2.23a4.3,4.3,0,0,1-1.08,0l-.1-.47c.46-.18.9-.38,1.36-.54,1.59-.55,3.23-1,4.77-1.65.53-.23.84-1,1.25-1.48-.62-.17-1.29-.58-1.87-.47a27.4,27.4,0,0,0-3.44,1.09l-.14-.36c.3-.17.58-.36.89-.5a49.85,49.85,0,0,0,11-7.37,15.36,15.36,0,0,0,5.58-9.1c.59-3,1.09-6.11,1.46-9.19a1.79,1.79,0,0,1,2-1.82c2.21-.07,4.42-.22,6.63-.26,6.05-.11,10.45,2.74,13.17,7.94,2.08,4,2.94,9.93-2.37,13.58a9.74,9.74,0,0,0-1.18,1.05c-1.88,1.83-3.9,3.54-4.79,6.17a2.19,2.19,0,0,1-1.28,1c-1.74.58-3.54,1-5.27,1.6-.46.16-.76.78-1.14,1.18a8.42,8.42,0,0,0,1.51.8,2.29,2.29,0,0,0,1.07-.16c1.47-.39,2.93-.8,4.5-1.23,0,4-.77,7.63-3.26,10.69a8.44,8.44,0,0,1-8.55,3.22c-2-.37-3.95-.62-5.92-1C280.6,241.82,278.12,241.31,275.63,240.82ZM226,206.63l.41-.2c.42.7.81,1.41,1.25,2.09s.72,2.27,2.05,1.48c1.16-.69.08-1.66-.2-2.5-.17-.49-.53-1.09-.39-1.5.48-1.45,0-2.27-1.52-1.89-1.24.31-1.7-.22-2.18-1.14-.84-1.58-1.72-3.13-2.64-4.67-.41-.69-.87-1.73-1.87-1-.31.22-.21,1.43.06,2,.71,1.53,1.74,2.9,2.41,4.44a16.27,16.27,0,0,1,.71,3.26l-.57.14c-.4-1-.75-2.06-1.25-3a1.43,1.43,0,0,0-1.07-.65c-.27,0-.57.5-.81.81s-.31.84-.52.87c-1.41.23-1.25,1-.76,1.93.71,1.35,1.37,2.72,2.13,4.05a26.18,26.18,0,0,0,1.56,2.21l-3,1.88a36.49,36.49,0,0,1-1.5-5.78c-.43-4.71-.67-9.44-.81-14.17a28,28,0,0,0-1.64-8.63c-1.2-3.3-2.26-6.67-3.22-10a38.31,38.31,0,0,1-.71-5c1.22.09,2.21-.09,2.94.27a61.53,61.53,0,0,1,6.37,3.63,6.59,6.59,0,0,1,2.66,4.82c.51,3.1.62,6.29,2.33,9.11,1.39,2.29,2.66,4.66,3.94,7a12.09,12.09,0,0,1,.67,1.55c-.79.67-1.59,1-1.8,1.6-.56,1.46.14,2.64,1.32,3.54-.5.85-.13,5.64.53,6.32.22.23.69.47.93.38s.79-.58.75-.82c-.26-1.73-.64-3.44-1-5.16a8.47,8.47,0,0,1-.1-1l.55-.08c.68,2.1,1.36,4.2,2.15,6.62l-5.69,2.1Zm20.21,29.15-.65.21-1.68-5.62,3.13-.71c-.28-.69-.43-1.83-.87-1.95-.65-.19-1.51.34-2.37.6a3.56,3.56,0,0,1-.34-.78c-.18-.64-.28-1.3-.37-1.75,4.92-4.1,7-9.49,7.93-15.81l1.81,2.28c-1.8-.07-1.82.84-1.53,2a3.53,3.53,0,0,1,.14,1.4c-.68,4.19-1.36,8.39-2.16,12.57-.13.71-.88,1.3-1.21,2-.21.46-.43,1.3-.2,1.51,1.7,1.62,1.78,3.74,1.68,5.77a71.3,71.3,0,0,1-1,7.08l-.35,0-1.3-5.38c1.72.06,1.73-1.15,1.55-2.27a36.71,36.71,0,0,0-1.13-4.74c-.13-.39-.83-.61-1.26-.9-.22.51-.66,1.06-.6,1.54A21.44,21.44,0,0,0,246.18,235.78ZM226,264.47a6.34,6.34,0,0,1,.85,1c.76,1.68,1.58,3.33,2.21,5.06,2.42,6.72,3.57,7.52,10.74,7.9A9,9,0,0,1,244,279.9c1.81,1.15,3.31,2.77,5,4.05,2.06,1.53,4.24,2.9,6.33,4.38a11.67,11.67,0,0,1,1.36,1.44c-2.49.05-4.46,0-5.39-2.34a1.28,1.28,0,0,0-.63-.68,17,17,0,0,0-2-.49c-.09.59-.18,1.19-.27,1.83-.12-.09-.58-.25-.61-.49-.42-2.7-2.46-4.13-4.4-5.61-.32-.25-.94-.12-1.42-.16a4.92,4.92,0,0,0-.09,1.42,4,4,0,0,0,.69,1.15,7.89,7.89,0,0,1-2.38-1.17c-1.91-1.3-3.72-2.78-5.74-3.9C228.77,276.13,227,270.76,226,264.47Zm73.36,20c.62,1.08,1.28,2.21,1.92,3.36a1.82,1.82,0,0,1-.93,2.75c-1.12.57-2.16,2-3.65.62-.68-.63-1.21-.37-1.67.34-.24.35-.54.83-.89.91-2.07.49-4.16.88-5.84,1.23L287,291.9c-.48.48-1.28.9-1.39,1.46-.35,1.84-1.74,1.77-3.05,2.07-.21-1.59-.41-3.07-.61-4.6C288.88,291.81,294.08,288.45,299.36,284.46ZM249.92,209.1c-.59.08-1.09.28-1.19.15-1-1.21-2.13-.57-3,0a16.48,16.48,0,0,0-3.65,2.94c-1.93,2.14-3.67,4.45-5.49,6.69l-2.29-.81a21.66,21.66,0,0,1,2-2.23c1.61-1.34,3.29-2.61,5-3.86.68-.5,1.45-1,.76-1.84a2,2,0,0,0-1.89.06c-2.18,1.62-4.25,3.4-6.36,5.12-.36.29-.68.77-1.07.84-2,.37-3.26-.44-4.19-2.51a38.93,38.93,0,0,0,4.57-1.54c1.47-.68,2.73-1.79,4.18-2.51a35.87,35.87,0,0,1,5.89-2.52C245.63,206.32,247.78,207.31,249.92,209.1Zm-9.88,67c-5.54.44-6.88-.48-8.74-5.76a41.93,41.93,0,0,0-2.65-6.07,4,4,0,0,0-2.32-1.85c-1.29-.3-1.54-1-1.63-2.18A28.49,28.49,0,0,1,240,276.06Zm2-52.06L238,221.2c0-2.24,7.66-10.17,10.61-10.54A22.8,22.8,0,0,1,242.08,224ZM277,297.11c-.88-2.22-1.74-4.45-2.67-6.65-.15-.37-.66-.89-.91-.84-.41.07-1,.57-1,.88a7.82,7.82,0,0,0,.5,2.57c.47,1.23,1.09,2.4,1.79,3.9l-1.57-.49a21.11,21.11,0,0,0-4-7.85c-.16-.19-1-.19-1.09,0a1.86,1.86,0,0,0-.25,1.38,23.82,23.82,0,0,0,1.35,2.54l-.33.19-3.36-4.7a26,26,0,0,1,14.82,2.48,30.75,30.75,0,0,0,.07,3.63c.27,2,.2,2.22-1.79,2.68ZM253.45,214l.51-.19c1.12,2.44,2.24,4.88,3.46,7.56-1.33-.09-2.22,0-2,1.35.52,2.91-.48,5.48-1.78,8-.63,1.2-1.33,2.35-2.15,3.79-.26-1.36-1-2.8-.66-3.92A52.42,52.42,0,0,0,253.45,214Zm4.32,57.53c.52-.49,1-.89,1.39-1.33a58.91,58.91,0,0,0,5.28-5.81,2.07,2.07,0,0,1,3.05-.64c.95.47,1.63,1.28,2.74.29.21-.19.9.16,1.4.26C270.7,267,261.1,271.93,257.77,271.53Zm.18-46a16,16,0,0,1-.85,9.66l-2.16-1.66Zm-29.8-8.4-3.83,2.52a6.37,6.37,0,0,1-.69-.37c-.48-.32-1-.64-1.4-1-1-.81-1-1.6.12-2.18a3.88,3.88,0,0,1,2.36-.26c1,.22,1.8,1.51,3.1.74C227.82,216.53,228.06,216.93,228.15,217.08Zm37.72,75.34c-2-.68-3.86-1.24-5.66-1.94-.55-.22-.95-.83-1.37-1.21,3.45-1.81,5.29-.15,6.67,2.54C265.61,292,265.72,292.16,265.87,292.42Zm-32.36-72.35a7.93,7.93,0,0,0-1.59.92c-2,1.8-2.48,1.86-5.2-.32,1-1.35,2.37-1.4,3.79-1.21C231.52,219.59,232.51,219.86,233.51,220.07Zm7.86,9.64-4.52-4,1.43-.63c.5.51.85,1.16,1.36,1.33C241.53,227.08,241.68,227.21,241.37,229.71Zm-8.76-6.37a3.25,3.25,0,0,1,5.15-.19C236,223.67,234.39,224.78,232.61,223.34Zm27.87,9.37c-.35-2.65-.07-3.24,1.27-3.09.83.1,1.65.3,2.76.51Zm-34.32-20.38a6.06,6.06,0,0,1-1.84-.62,1.93,1.93,0,0,1-.68-1.42,6.13,6.13,0,0,1,1-1.81C224.8,210,226.71,210.68,226.16,212.33ZM260,224.2c-.07-.6-.14-1.19-.2-1.73l2-1,1.59,1.08Zm-60.8,5,.44,0c-.48,1.67-1,3.35-1.43,5C196.58,232.07,198.24,230.76,199.16,229.24Zm-2.39-17.84.37.23-3.71,5.8-.73-.46C194,215.08,195.35,213.21,196.77,211.4Zm64.93,5.54.35.55-2.71,3.27c-.28-.84-.44-1.31-.61-1.79Zm10.68,13.71.12.45-7.76,2.08-.16-.64ZM253,236.25c1.59.46,2.19,2.25,1.69,4ZM216.76,251c-1.88,2.26-1.88,2.26-3.86,1.15Zm-21.47-55-2.13,3.41C192.69,197.42,193.94,196.67,195.29,196Zm39.82,8.27.46-.15,1.14,3.15-.63.22Z"/><path class="cls-12" d="M216.88,244.68c1.07,1.48,1.93.95,2.79-.15,1.38-1.79,2.85-3.51,4.15-5.36.32-.45.1-1.27.13-1.92a7.86,7.86,0,0,0-1.79.8,6.61,6.61,0,0,0-1.16,1.49c-.49.66-.86,1.48-2,.92-.22-.11-.7.17-1,.36a32.42,32.42,0,0,1-11.72,4.86c-.42.07-.74.7-1.11,1.07l2.08,1.5c.37,1.09.75,1.21,2.3.36C212,247.3,214.4,246,216.88,244.68Z"/><path class="cls-12" d="M232.82,261.51c.22,1.23,1,1.36,1.75.91a44.46,44.46,0,0,0,4-2.55,22.72,22.72,0,0,0,3-2.51c.32-.32.22-1.07.31-1.62-.53,0-1.19-.18-1.55.06-2.34,1.59-4.62,3.26-6.9,4.93A3.27,3.27,0,0,0,232.82,261.51Z"/><path class="cls-12" d="M245.51,267.72c.58.12,1.43.55,1.71.31,2.19-1.86,4.31-3.82,6.35-5.85.25-.24-.1-1.09-.18-1.65a4.17,4.17,0,0,0-1.48.5c-1.84,1.64-3.59,3.38-5.42,5a5.62,5.62,0,0,1-1.44.68Z"/><path class="cls-12" d="M213.14,196.12c-2,0-5.38,3.09-5.47,4.75a1.38,1.38,0,0,0,.59,1.09,1.26,1.26,0,0,0,1.18-.37,8.28,8.28,0,0,1,4.11-3.7,1.23,1.23,0,0,0,.4-1.16C213.85,196.41,213.29,196.23,213.14,196.12Z"/><path class="cls-12" d="M208.1,194c.1.11.33.61.61.63a1.63,1.63,0,0,0,1.2-.45c1.09-1.18,2.12-2.4,3.12-3.65.22-.28.41-.89.26-1.09a1.54,1.54,0,0,0-1.15-.54C210.78,189,208,192.33,208.1,194Z"/><path class="cls-12" d="M210.72,214.54c.3,1.09,1.19,1.57,1.81.93a21.74,21.74,0,0,0,2.79-3.54c.46-.75-.48-1.81-1-1.34A46.48,46.48,0,0,0,210.72,214.54Z"/><path class="cls-12" d="M226.15,230.77c.39.47.6,1,.89,1a1.45,1.45,0,0,0,1.19-.38,12.2,12.2,0,0,0,1.73-2.61c.19-.44-.11-1.11-.19-1.67-.49.15-1.16.16-1.44.49C227.54,228.58,226.91,229.66,226.15,230.77Z"/><path class="cls-12" d="M209,204.85c.12.14.29.53.57.65a1.16,1.16,0,0,0,1-.12,25.25,25.25,0,0,0,2.37-2.48,1.09,1.09,0,0,0,0-1,1.18,1.18,0,0,0-.9-.47C211,201.4,208.93,203.6,209,204.85Z"/><path class="cls-12" d="M295.67,177.73c-1.34-1-1.69-.9-2.23.38a32.7,32.7,0,0,1-9.09,12.47c-.32.27-.78.48-.94.82s-.34,1.09-.13,1.39a1.44,1.44,0,0,0,1.33.17,7,7,0,0,0,1.65-1.2,36.93,36.93,0,0,0,8.82-12,10.87,10.87,0,0,0,.54-2.11Z"/><path class="cls-12" d="M252.89,172c.41,1.16-.45,2.89,1.26,2.81,1.51-.07.67-1.68.88-2.6.72-3.12,1.35-6.25,2.19-9.33.51-1.87,1.39-3.63,2-5.47.15-.46-.2-1.08-.32-1.62l-1.44.61c-.08,0-.11.18-.16.27A56.69,56.69,0,0,0,252.89,172Z"/><path class="cls-12" d="M275.76,182.8c.33.39.56.86.78.86a2.12,2.12,0,0,0,1.4-.42c1.65-1.63,3.29-3.27,4.78-5a25.08,25.08,0,0,0,2.8-4.19c.25-.47-.14-1.29-.24-1.94a5.82,5.82,0,0,0-1.54,1c-2.3,2.73-4.54,5.5-6.79,8.27C276.56,181.77,276.19,182.24,275.76,182.8Z"/><path class="cls-12" d="M265.57,174c.32.34.56.82.84.85s1.06-.16,1.18-.44q1.11-2.69,2-5.45a1.26,1.26,0,0,0-.56-1.11,1.21,1.21,0,0,0-1.16.35C267.05,170,266.35,171.93,265.57,174Z"/><path class="cls-12" d="M264.91,244a9.05,9.05,0,0,0,.55.87c3.35,4.14,6.67,8.3,10.09,12.36a14.73,14.73,0,0,0,3.15,2.55,1.37,1.37,0,0,0,1.31-.39,1.47,1.47,0,0,0-.33-1.31c-2.25-2.55-4.61-5-6.85-7.58-1.93-2.22-3.72-4.58-5.66-6.8a2.77,2.77,0,0,0-1.65-.51C265.35,243.2,265.12,243.72,264.91,244Z"/><path class="cls-12" d="M284.37,275.27c.12-.56.52-1.3.3-1.66q-3.76-6.27-7.72-12.42c-.26-.4-1-.47-1.54-.7-.07.6-.42,1.36-.17,1.78,2.24,3.86,4.57,7.65,6.89,11.46.41.67.84,1.32,1.26,2Z"/><path class="cls-12" d="M273.58,260.53c.08-.57.43-1.31.2-1.68-2.32-3.67-4.73-7.28-7.13-10.91a1.74,1.74,0,0,0-.62-.69c-.35-.14-.93-.28-1.12-.1a1.39,1.39,0,0,0-.37,1.19,8,8,0,0,0,.93,1.63c1.66,2.74,3.26,5.51,5,8.19a18.42,18.42,0,0,0,2.39,2.54Z"/><path class="cls-12" d="M282,256.43c.36-.31.81-.52.9-.84a1.39,1.39,0,0,0-.28-1.1c-2.46-2.94-5-5.84-7.43-8.75a4.17,4.17,0,0,0-1.08-1.13,3.69,3.69,0,0,0-1.42-.07c0,.47-.23,1.12,0,1.41q3.81,4.8,7.78,9.5A6.52,6.52,0,0,0,282,256.43Z"/><path class="cls-12" d="M258.69,245.25a12.14,12.14,0,0,0,.59,1.27q2.82,4.53,5.68,9.06a4.11,4.11,0,0,0,.48.62c.61.66,1.33,1.53,2.23.73s-.12-1.4-.57-2.07c-2-3.07-4-6.18-5.93-9.27a3.55,3.55,0,0,0-.71-1,1.39,1.39,0,0,0-1.12-.22C259,244.46,258.89,244.94,258.69,245.25Z"/><path class="cls-12" d="M275.18,281.26c.46-.35.88-.51,1-.78a1.52,1.52,0,0,0-.14-1.15c-1.89-2.78-3.79-5.54-5.78-8.24-.31-.42-1.1-.48-1.68-.71,0,.6-.29,1.36,0,1.78,1.58,2.53,3.27,5,5,7.45A12.65,12.65,0,0,0,275.18,281.26Z"/><path class="cls-12" d="M297.86,214.21c.14,1.33,1,1.52,2.05,1.28,2.86-.69,5.72-1.41,8.54-2.22.38-.1.57-.82.85-1.26-.52-.22-1.1-.73-1.56-.64-2.21.47-4.38,1.1-6.57,1.67a1.35,1.35,0,0,1-1,0l6.44-3.2c.37-.18.86-.3,1.08-.6a1.61,1.61,0,0,0,.27-1.25c-.07-.24-.66-.48-1-.47a3.79,3.79,0,0,0-1.33.47c-4.22,2-8.45,4-12.64,6.06-.45.23-.63,1-.94,1.52.56.13,1.18.49,1.65.35C295.06,215.44,296.39,214.81,297.86,214.21Z"/><path class="cls-12" d="M305.25,203.69a3.15,3.15,0,0,0-.6.17c-2.46,1.18-5,2.3-7.36,3.6a7.21,7.21,0,0,0-2,2.15,1.27,1.27,0,0,0,.25,1.21,1.23,1.23,0,0,0,1.22,0c2.28-2.65,5.61-3.44,8.53-4.95a2.36,2.36,0,0,0,1-1.37c.09-.35-.32-.84-.51-1.27Z"/><path class="cls-12" d="M302.6,216.71a35.06,35.06,0,0,0-3.77,1c-.41.15-.62.8-.92,1.22.45.24.92.68,1.37.67.77,0,1.54-.49,2.29-.46a18.33,18.33,0,0,1,2.77.61,14.85,14.85,0,0,0,1.51.15c0-.58.18-1.5-.09-1.67A24.18,24.18,0,0,0,302.6,216.71Z"/><path class="cls-12" d="M293.75,223.75a33.51,33.51,0,0,0,3.2-1.4,1.33,1.33,0,0,0,.4-1.19,1.27,1.27,0,0,0-1.09-.56,17.5,17.5,0,0,0-3.21,1.21,1.27,1.27,0,0,0-.44,1.15C292.72,223.29,293.29,223.45,293.75,223.75Z"/><path class="cls-12" d="M214.07,175.51c1.06,3.24,2,6.2,3,9.1a61.42,61.42,0,0,0,2.56,6.1c.24.51,1,.76,1.57,1.13.11-.65.49-1.4.3-1.94-1.22-3.4-2.65-6.74-3.84-10.15-.52-1.49-.58-3.15-1-4.68-.13-.46-.79-.77-1.21-1.14Z"/><path class="cls-12" d="M222.92,194.15c.18.39.27.64.4.86,1,1.74,1.88,3.52,3,5.19.28.44,1,.59,1.55.88.09-.61.46-1.34.24-1.79a56.92,56.92,0,0,0-3-5.34,2.11,2.11,0,0,0-1.44-.62C223.42,193.31,223.15,193.88,222.92,194.15Z"/><text class="cls-13" transform="translate(103.06 342.84)">l</text><text class="cls-14" transform="translate(167.47 482.85)">v</text></svg>